<?xml version="1.0" encoding="utf-8"?>
<!-- Generator: Adobe Illustrator 25.4.1, SVG Export Plug-In . SVG Version: 6.00 Build 0)  -->
<svg version="1.1" id="레이어_1" xmlns="http://www.w3.org/2000/svg" xmlns:xlink="http://www.w3.org/1999/xlink" x="0px"
     y="0px" viewBox="0 0 20 20" style="enable-background:new 0 0 20 20;" xml:space="preserve">
<style type="text/css">
	.st0{fill:#A3A8AF;}
</style>
    <g>
	<path class="st0" d="M17.4,5.4L15,3.1C14.9,3,14.8,3,14.6,3c-0.1,0-0.3,0.1-0.4,0.2c-0.1,0.1-0.2,0.2-0.2,0.4
		c0,0.1,0.1,0.3,0.2,0.4l2.3,2.3c0,0.1,0.1,0.1,0.2,0.1c0.1,0,0.1,0,0.2,0c0.1,0,0.1,0,0.2,0c0.1,0,0.1-0.1,0.2-0.1
		c0-0.1,0.1-0.1,0.1-0.2c0-0.1,0-0.1,0-0.2c0-0.1,0-0.1,0-0.2C17.4,5.6,17.4,5.5,17.4,5.4L17.4,5.4z"/>
        <path class="st0" d="M5.7,3.1C5.6,3,5.5,3,5.3,3C5.2,3,5.1,3,5,3.1L2.6,5.4C2.4,5.7,2.4,6,2.6,6.2C2.7,6.3,2.9,6.4,3,6.4
		c0.1,0,0.3-0.1,0.4-0.2l2.3-2.3c0.1-0.1,0.2-0.2,0.2-0.4C5.9,3.4,5.8,3.2,5.7,3.1z"/>
        <path class="st0" d="M16.6,10.3c0,0,0-0.1,0-0.2l0,0c-0.2-3.4-2.9-6.1-6.2-6.2H9.7c-3.4,0.2-6.1,2.9-6.2,6.2l0,0c0,0.1,0,0.1,0,0.2
		v0.4c0,0,0,0.1,0,0.1l0,0c0.2,3.4,2.9,6,6.2,6.2h0.7c3.4-0.2,6.1-2.9,6.2-6.2l0,0c0,0,0-0.1,0-0.1V10.3z M13.8,11H10
		c-0.1,0-0.3-0.1-0.4-0.2c-0.1-0.1-0.2-0.2-0.2-0.4V6.6c0-0.3,0.2-0.5,0.5-0.5s0.5,0.2,0.5,0.5v3.3h3.3c0.3,0,0.5,0.2,0.5,0.5
		c0,0.1-0.1,0.3-0.2,0.4C14.1,11,14,11,13.8,11z"/>
</g>
</svg>
