<svg width="35" height="35" viewBox="0 0 35 35" fill="none" xmlns="http://www.w3.org/2000/svg">
    <path d="M17.98 4.69a5.34 5.34 0 0 1 4.954-3.4 1.063 1.063 0 0 1 0 2.125 3.2 3.2 0 0 0-2.975 2.045 1.062 1.062 0 0 1-.997.678 1.222 1.222 0 0 1-.371-.067 1.063 1.063 0 0 1-.611-1.381zm12.125 16.761a5.313 5.313 0 0 1-.358-9.297 1.088 1.088 0 0 0 .292-1.567A9.031 9.031 0 0 0 17.621 8.86a9.032 9.032 0 0 0-14.344 7.305 17.93 17.93 0 0 0 3.042 9.828c1.912 2.83 4.343 4.516 6.52 4.516h9.563c2.989 0 6.362-3.174 8.221-7.703a1.05 1.05 0 0 0-.518-1.355z" fill="#000"/>
</svg>
