<svg width="20" height="21" viewBox="0 0 20 21" fill="none" xmlns="http://www.w3.org/2000/svg">
    <style>
        .aside-users-three{fill:#A3A8AF;}
    </style>
<path class="aside-users-three" d="M5.00008 11.4767C5.00008 11.5588 4.98392 11.6401 4.95251 11.7159C4.9211 11.7917 4.87507 11.8606 4.81703 11.9187C4.75899 11.9767 4.69009 12.0227 4.61426 12.0541C4.53843 12.0856 4.45715 12.1017 4.37508 12.1017H4.37504L0.937424 12.1014C0.821321 12.1014 0.707518 12.069 0.608772 12.008C0.510026 11.9469 0.430242 11.8595 0.378364 11.7557C0.326486 11.6518 0.304565 11.5355 0.315058 11.4199C0.325552 11.3043 0.368046 11.1939 0.437775 11.101C0.99171 10.3589 1.73051 9.77486 2.58053 9.40724C2.21528 9.07337 1.93456 8.65752 1.76148 8.19393C1.5884 7.73034 1.52791 7.23227 1.58499 6.74073C1.64207 6.24919 1.81509 5.77823 2.08979 5.36664C2.3645 4.95505 2.73304 4.61459 3.16508 4.3733C3.59711 4.13202 4.08028 3.9968 4.57479 3.97878C5.06931 3.96077 5.56104 4.06047 6.00948 4.26968C6.45793 4.47889 6.85026 4.79162 7.15419 5.18213C7.45812 5.57265 7.66495 6.02976 7.75765 6.51585C7.78162 6.6421 7.76609 6.77268 7.71318 6.88979C7.66026 7.0069 7.57253 7.10485 7.46193 7.1703C6.45008 7.76889 5.67997 8.70312 5.28545 9.8106C5.09593 10.3456 4.99941 10.9091 5.00008 11.4767V11.4767ZM19.5625 11.1009C19.0086 10.3587 18.2698 9.7747 17.4198 9.40709C17.7851 9.07322 18.0658 8.65737 18.2389 8.19379C18.4119 7.7302 18.4724 7.23214 18.4153 6.7406C18.3583 6.24906 18.1853 5.7781 17.9106 5.36651C17.6359 4.95492 17.2673 4.61447 16.8353 4.37317C16.4033 4.13188 15.9201 3.99666 15.4256 3.97864C14.9311 3.96061 14.4394 4.0603 13.9909 4.2695C13.5425 4.47871 13.1501 4.79143 12.8462 5.18193C12.5422 5.57243 12.3354 6.02954 12.2427 6.51562C12.2187 6.64187 12.2343 6.77244 12.2872 6.88954C12.3401 7.00665 12.4278 7.10461 12.5384 7.17007C13.5502 7.76871 14.3203 8.70296 14.7149 9.81045C14.9044 10.3455 15.0009 10.909 15.0002 11.4766C15.0002 11.5586 15.0164 11.6399 15.0478 11.7157C15.0792 11.7916 15.1253 11.8605 15.1833 11.9185C15.2414 11.9766 15.3103 12.0226 15.3861 12.054C15.4619 12.0854 15.5432 12.1016 15.6253 12.1016L19.0629 12.1013C19.179 12.1012 19.2928 12.0689 19.3915 12.0078C19.4903 11.9468 19.5701 11.8594 19.6219 11.7555C19.6738 11.6517 19.6957 11.5354 19.6853 11.4198C19.6748 11.3041 19.6323 11.1937 19.5625 11.1009L19.5625 11.1009ZM12.2785 14.4523C12.9012 13.976 13.359 13.3164 13.5875 12.5664C13.816 11.8164 13.8036 11.0137 13.5521 10.2711C13.3007 9.52844 12.8228 8.8833 12.1857 8.42638C11.5486 7.96945 10.7843 7.72371 10.0002 7.72371C9.2162 7.72371 8.45188 7.96945 7.81476 8.42638C7.17764 8.8833 6.69976 9.52844 6.44831 10.2711C6.19687 11.0137 6.18451 11.8164 6.41297 12.5664C6.64143 13.3164 7.09923 13.976 7.72198 14.4523C6.50518 14.9895 5.51937 15.9423 4.9411 17.1402C4.89466 17.2354 4.87321 17.341 4.87878 17.4468C4.88434 17.5527 4.91674 17.6554 4.97293 17.7453C5.02911 17.8352 5.10724 17.9093 5.19995 17.9607C5.29267 18.012 5.39693 18.039 5.50293 18.039H14.4975C14.6035 18.039 14.7078 18.012 14.8005 17.9606C14.8932 17.9093 14.9713 17.8351 15.0275 17.7453C15.0837 17.6554 15.1161 17.5527 15.1217 17.4468C15.1272 17.341 15.1058 17.2354 15.0594 17.1402C14.4811 15.9423 13.4953 14.9895 12.2785 14.4523V14.4523Z"/>
</svg>
