<svg width="20" height="20" viewBox="0 0 20 20" fill="none" xmlns="http://www.w3.org/2000/svg">
    <path d="M16.25 2.5h-1.875v-.625a.625.625 0 1 0-1.25 0V2.5h-6.25v-.625a.625.625 0 0 0-1.25 0V2.5H3.75A1.25 1.25 0 0 0 2.5 3.75v12.5a1.25 1.25 0 0 0 1.25 1.25h12.5a1.25 1.25 0 0 0 1.25-1.25V3.75a1.25 1.25 0 0 0-1.25-1.25zm-3.008 7.953-3.648 3.438a.602.602 0 0 1-.43.171.617.617 0 0 1-.43-.171l-1.976-1.875a.625.625 0 1 1 .86-.907l1.546 1.47 3.219-3.032a.616.616 0 0 1 .883.023.625.625 0 0 1-.024.883zM16.25 6.25H3.75v-2.5h1.875v.625a.625.625 0 0 0 1.25 0V3.75h6.25v.625a.625.625 0 1 0 1.25 0V3.75h1.875v2.5z" fill="#A3A8AF"/>
</svg>
