<svg width="20" height="20" viewBox="0 0 20 20" fill="none" xmlns="http://www.w3.org/2000/svg">
<path d="M18.5521 8.14638C18.5332 8.05951 18.4961 7.97766 18.443 7.9063C18.39 7.83494 18.3224 7.77571 18.2447 7.73256L16.3872 6.70141C16.2844 6.50213 16.172 6.30716 16.0512 6.11853L16.087 3.99256C16.0885 3.90364 16.071 3.81542 16.0357 3.7338C16.0004 3.65219 15.9481 3.57905 15.8822 3.51927C14.9574 2.67814 13.8619 2.04664 12.6705 1.66792C12.5859 1.64083 12.4964 1.6321 12.4081 1.64233C12.3198 1.65256 12.2347 1.68151 12.1585 1.72724L10.3367 2.82034C10.1126 2.80966 9.8875 2.80947 9.66396 2.8198L7.84068 1.72579C7.76442 1.68004 7.67927 1.65109 7.59092 1.64086C7.50258 1.63064 7.41307 1.63938 7.32837 1.66651C6.13755 2.04689 5.0429 2.67989 4.11922 3.52224C4.05342 3.58202 4.00112 3.65515 3.96583 3.73675C3.93054 3.81834 3.91306 3.90653 3.91456 3.99542L3.9503 6.11963C3.82915 6.30827 3.71642 6.50312 3.61347 6.70198L1.75441 7.73402C1.67666 7.77718 1.60901 7.83644 1.55599 7.90783C1.50297 7.97923 1.46579 8.06111 1.44695 8.14802C1.1809 9.36949 1.18176 10.634 1.44946 11.8551C1.46834 11.942 1.50553 12.0238 1.55855 12.0952C1.61157 12.1666 1.6792 12.2258 1.75693 12.2689L3.61442 13.3001C3.71723 13.4994 3.82957 13.6943 3.95034 13.883L3.91456 16.0089C3.91306 16.0979 3.93056 16.1861 3.96588 16.2677C4.0012 16.3493 4.05353 16.4224 4.11937 16.4822C5.04417 17.3233 6.13969 17.9548 7.33104 18.3336C7.4157 18.3607 7.50518 18.3694 7.59348 18.3592C7.68178 18.3489 7.76689 18.32 7.84312 18.2743L9.66487 17.1811C9.88895 17.1918 10.114 17.192 10.3376 17.1817L12.1609 18.2757C12.2372 18.3215 12.3223 18.3504 12.4107 18.3606C12.499 18.3709 12.5885 18.3621 12.6732 18.335C13.864 17.9546 14.9587 17.3216 15.8824 16.4792C15.9482 16.4195 16.0005 16.3463 16.0358 16.2647C16.071 16.1831 16.0885 16.095 16.087 16.0061L16.0513 13.8819C16.1724 13.6932 16.2852 13.4984 16.3881 13.2995L18.2472 12.2675C18.3249 12.2243 18.3926 12.1651 18.4456 12.0937C18.4986 12.0223 18.5358 11.9404 18.5546 11.8535C18.8207 10.632 18.8198 9.36748 18.5521 8.14638V8.14638ZM13.4383 10.0007C13.4383 10.6806 13.2367 11.3452 12.859 11.9105C12.4813 12.4758 11.9444 12.9164 11.3163 13.1766C10.6881 13.4368 9.99698 13.5048 9.33017 13.3722C8.66336 13.2396 8.05086 12.9122 7.57012 12.4314C7.08937 11.9507 6.76198 11.3382 6.62935 10.6714C6.49671 10.0046 6.56478 9.31339 6.82496 8.68527C7.08514 8.05715 7.52573 7.52029 8.09102 7.14257C8.65632 6.76485 9.32092 6.56325 10.0008 6.56325C10.9122 6.56428 11.7859 6.92677 12.4303 7.5712C13.0748 8.21564 13.4373 9.08938 13.4383 10.0007V10.0007Z" fill="#A3A8AF"/>
</svg>
