<svg width="20" height="20" viewBox="0 0 20 20" fill="none" xmlns="http://www.w3.org/2000/svg">
<mask id="path-1-outside-1_10664_754" maskUnits="userSpaceOnUse" x="0" y="0" width="20" height="20" fill="black">
<rect fill="white" width="20" height="20"/>
<path fill-rule="evenodd" clip-rule="evenodd" d="M9.99727 17.9945C14.414 17.9945 17.9945 14.414 17.9945 9.99727C17.9945 5.5805 14.414 2 9.99727 2C5.5805 2 2 5.5805 2 9.99727C2 14.414 5.5805 17.9945 9.99727 17.9945ZM11.7867 11.248V6.99805H13.3867V13.998H12.0567L8.56672 9.74805V13.998H6.96672V6.99805H8.30672L11.7867 11.248Z"/>
</mask>
<path fill-rule="evenodd" clip-rule="evenodd" d="M9.99727 17.9945C14.414 17.9945 17.9945 14.414 17.9945 9.99727C17.9945 5.5805 14.414 2 9.99727 2C5.5805 2 2 5.5805 2 9.99727C2 14.414 5.5805 17.9945 9.99727 17.9945ZM11.7867 11.248V6.99805H13.3867V13.998H12.0567L8.56672 9.74805V13.998H6.96672V6.99805H8.30672L11.7867 11.248Z" fill="#FF2B3D"/>
<path d="M11.7867 6.99805V5.49805H10.2867V6.99805H11.7867ZM11.7867 11.248L10.6261 12.1983L13.2867 15.4476V11.248H11.7867ZM13.3867 6.99805H14.8867V5.49805H13.3867V6.99805ZM13.3867 13.998V15.498H14.8867V13.998H13.3867ZM12.0567 13.998L10.8975 14.95L11.3475 15.498H12.0567V13.998ZM8.56672 9.74805L9.72595 8.79611L7.06672 5.55779V9.74805H8.56672ZM8.56672 13.998V15.498H10.0667V13.998H8.56672ZM6.96672 13.998H5.46672V15.498H6.96672V13.998ZM6.96672 6.99805V5.49805H5.46672V6.99805H6.96672ZM8.30672 6.99805L9.46729 6.04774L9.01718 5.49805H8.30672V6.99805ZM16.4945 9.99727C16.4945 13.5856 13.5856 16.4945 9.99727 16.4945V19.4945C15.2425 19.4945 19.4945 15.2425 19.4945 9.99727H16.4945ZM9.99727 3.5C13.5856 3.5 16.4945 6.40893 16.4945 9.99727H19.4945C19.4945 4.75207 15.2425 0.5 9.99727 0.5V3.5ZM3.5 9.99727C3.5 6.40893 6.40893 3.5 9.99727 3.5V0.5C4.75207 0.5 0.5 4.75207 0.5 9.99727H3.5ZM9.99727 16.4945C6.40893 16.4945 3.5 13.5856 3.5 9.99727H0.5C0.5 15.2425 4.75207 19.4945 9.99727 19.4945V16.4945ZM10.2867 6.99805V11.248H13.2867V6.99805H10.2867ZM13.3867 5.49805H11.7867V8.49805H13.3867V5.49805ZM14.8867 13.998V6.99805H11.8867V13.998H14.8867ZM12.0567 15.498H13.3867V12.498H12.0567V15.498ZM7.40749 10.7L10.8975 14.95L13.216 13.0461L9.72595 8.79611L7.40749 10.7ZM10.0667 13.998V9.74805H7.06672V13.998H10.0667ZM6.96672 15.498H8.56672V12.498H6.96672V15.498ZM5.46672 6.99805V13.998H8.46672V6.99805H5.46672ZM8.30672 5.49805H6.96672V8.49805H8.30672V5.49805ZM12.9473 10.2977L9.46729 6.04774L7.14615 7.94835L10.6261 12.1983L12.9473 10.2977Z" fill="white" mask="url(#path-1-outside-1_10664_754)"/>
</svg>
