<svg width="27" height="27" viewBox="0 0 27 27" fill="none" xmlns="http://www.w3.org/2000/svg">
    <style>
        .bellringing-icon{fill:#A3A8AF;}
    </style>
    <path class="bellringing-icon" d="M21.917 11.813A8.407 8.407 0 0 0 13.5 3.375a8.427 8.427 0 0 0-8.416 8.438c0 3.62-.746 5.665-1.373 6.743a1.687 1.687 0 0 0 1.455 2.538h4.116a4.219 4.219 0 1 0 8.437 0h4.115a1.687 1.687 0 0 0 1.455-2.538c-.626-1.077-1.372-3.122-1.372-6.743zM13.5 23.625a2.534 2.534 0 0 1-2.531-2.531h5.063a2.534 2.534 0 0 1-2.532 2.531zM23.72 7.73a.843.843 0 0 1-1.13-.384 10.157 10.157 0 0 0-3.693-4.101.844.844 0 1 1 .901-1.427 11.842 11.842 0 0 1 4.306 4.782.843.843 0 0 1-.384 1.13zm-20.065.087a.844.844 0 0 1-.756-1.217 11.842 11.842 0 0 1 4.305-4.782.844.844 0 1 1 .901 1.427c-1.586 1-2.864 2.42-3.692 4.1a.844.844 0 0 1-.758.472z" fill="#A3A8AF"/>
</svg>
