<svg width="24" height="24" viewBox="0 0 24 24" fill="none" xmlns="http://www.w3.org/2000/svg">
    <path d="M21.793 5.944a.504.504 0 0 0-.488 0L17.073 8.08v-.672a1.536 1.536 0 0 0-1.536-1.536h-12a1.536 1.536 0 0 0-1.568 1.536v9.184a1.536 1.536 0 0 0 1.536 1.536h12a1.536 1.536 0 0 0 1.536-1.536v-.656l4.232 2.136a.44.44 0 0 0 .224.056.495.495 0 0 0 .504-.504V6.4a.527.527 0 0 0-.208-.456zm-5.72 2.928v7.72a.535.535 0 0 1-.536.536h-12A.537.537 0 0 1 3 16.592V7.408a.536.536 0 0 1 .536-.536h12a.536.536 0 0 1 .536.536v1.464zm4.96 7.928-3.96-2V9.2l3.96-2v9.6z" fill="#5E5E5E"/>
    <path d="M7.408 7.4h-3.2a.504.504 0 1 0 0 1h3.2a.504.504 0 1 0 0-1zM9.44 7.4h-.744a.504.504 0 1 0 0 1h.744a.504.504 0 0 0 0-1z" fill="#5E5E5E"/>
</svg>
