<svg width="26" height="26" viewBox="0 0 26 26" fill="none" xmlns="http://www.w3.org/2000/svg">
<circle cx="13" cy="13" r="13" fill="#664CFF"/>
<path d="M19.1406 18.2812H18.6094V7.65625C18.6094 7.51535 18.5534 7.38023 18.4538 7.2806C18.3541 7.18097 18.219 7.125 18.0781 7.125H14.3594C14.2185 7.125 14.0834 7.18097 13.9837 7.2806C13.8841 7.38023 13.8281 7.51535 13.8281 7.65625V10.3125H10.6406C10.4997 10.3125 10.3646 10.3685 10.265 10.4681C10.1653 10.5677 10.1094 10.7029 10.1094 10.8438V13.5H6.92188C6.78098 13.5 6.64585 13.556 6.54623 13.6556C6.4466 13.7552 6.39063 13.8904 6.39062 14.0312V18.2812H5.85938C5.71848 18.2812 5.58335 18.3372 5.48372 18.4368C5.3841 18.5365 5.32813 18.6716 5.32812 18.8125C5.32812 18.9534 5.3841 19.0885 5.48372 19.1882C5.58335 19.2878 5.71848 19.3438 5.85938 19.3438H19.1406C19.2815 19.3438 19.4166 19.2878 19.5163 19.1882C19.6159 19.0885 19.6719 18.9534 19.6719 18.8125C19.6719 18.6716 19.6159 18.5365 19.5163 18.4368C19.4166 18.3372 19.2815 18.2812 19.1406 18.2812ZM11.1719 11.375H13.8281V18.2812H11.1719V11.375ZM7.45312 14.5625H10.1094V18.2812H7.45312V14.5625Z" fill="#F5F5F5"/>
</svg>
