<svg width="31" height="31" viewBox="0 0 31 31" fill="none" xmlns="http://www.w3.org/2000/svg">
<path d="M27.5398 22.8759C28.2591 21.5312 28.6396 20.0315 28.6483 18.5065C28.657 16.9816 28.2936 15.4776 27.5897 14.1249C26.8858 12.7721 25.8626 11.6115 24.6088 10.7435C23.355 9.87553 21.9084 9.32646 20.3944 9.14388C19.897 7.98008 19.1692 6.92904 18.2547 6.0541C17.3402 5.17917 16.258 4.49846 15.0733 4.05301C13.8887 3.60755 12.6261 3.40657 11.3617 3.46218C10.0973 3.51779 8.8572 3.82884 7.71624 4.37658C6.57527 4.92431 5.55702 5.6974 4.72285 6.64924C3.88869 7.60108 3.25589 8.71197 2.86259 9.91494C2.46929 11.1179 2.32364 12.3881 2.43442 13.6488C2.54519 14.9096 2.91009 16.1349 3.50713 17.2509L2.78238 19.788C2.70196 20.0693 2.69823 20.367 2.77159 20.6502C2.84495 20.9335 2.99272 21.1919 3.19959 21.3989C3.40646 21.6058 3.6649 21.7536 3.94812 21.827C4.23135 21.9004 4.52906 21.8967 4.81039 21.8164L7.34777 21.0915C8.37455 21.641 9.49492 21.9941 10.6513 22.1325C11.1625 23.3284 11.9168 24.4049 12.8663 25.2936C13.8159 26.1823 14.9398 26.8638 16.1669 27.2949C17.3939 27.726 18.6972 27.8972 19.9939 27.7976C21.2907 27.698 22.5525 27.3298 23.6993 26.7164L26.2366 27.4414C26.5179 27.5217 26.8156 27.5254 27.0988 27.452C27.382 27.3786 27.6405 27.2308 27.8473 27.0239C28.0542 26.817 28.202 26.5586 28.2754 26.2754C28.3488 25.9922 28.3451 25.6945 28.2647 25.4131L27.5398 22.8759ZM25.7249 22.2773C25.6596 22.3871 25.6175 22.5091 25.601 22.6358C25.5846 22.7625 25.5942 22.8912 25.6293 23.0141L26.346 25.5226L23.8375 24.8059C23.7146 24.7708 23.5859 24.7612 23.4592 24.7777C23.3326 24.7942 23.2106 24.8363 23.1008 24.9016C22.2428 25.4101 21.292 25.7424 20.3041 25.8792C19.3162 26.016 18.3109 25.9544 17.347 25.6982C16.3831 25.4419 15.48 24.9961 14.6904 24.3867C13.9008 23.7774 13.2407 23.0168 12.7485 22.1493C14.0326 22.0164 15.2754 21.6194 16.3988 20.9832C17.5222 20.3471 18.5019 19.4855 19.2764 18.4525C20.0509 17.4196 20.6034 16.2377 20.8992 14.9811C21.1951 13.7244 21.2279 12.4202 20.9956 11.1502C22.141 11.4208 23.2068 11.9571 24.1066 12.7157C25.0065 13.4743 25.7153 14.434 26.1756 15.5171C26.636 16.6003 26.8351 17.7766 26.7568 18.951C26.6785 20.1253 26.325 21.2648 25.7249 22.2773Z" fill="black"/>
</svg>
