<svg width="27" height="27" viewBox="0 0 27 27" fill="none" xmlns="http://www.w3.org/2000/svg">
    <style>
        .question-icon{fill:#A3A8AF;}
    </style>
    <path class="question-icon" d="M23.821 10.844c-.398-.415-.809-.844-.964-1.22-.143-.345-.152-.917-.16-1.47-.016-1.03-.033-2.196-.844-3.007-.811-.81-1.978-.828-3.007-.844-.553-.008-1.125-.017-1.47-.16-.376-.155-.805-.567-1.22-.964-.728-.7-1.555-1.491-2.656-1.491-1.101 0-1.927.792-2.656 1.49-.415.398-.844.81-1.22.965-.345.143-.917.152-1.47.16-1.03.016-2.196.033-3.007.844-.81.811-.828 1.978-.844 3.007-.008.553-.017 1.125-.16 1.47-.155.376-.567.805-.964 1.22-.7.729-1.491 1.555-1.491 2.656 0 1.101.792 1.927 1.49 2.656.398.415.81.844.965 1.22.143.345.152.917.16 1.47.016 1.03.033 2.196.844 3.007.811.81 1.978.828 3.007.844.553.008 1.125.017 1.47.16.376.155.805.567 1.22.964.729.7 1.555 1.491 2.656 1.491 1.101 0 1.927-.792 2.656-1.49.415-.398.844-.81 1.22-.965.345-.143.917-.152 1.47-.16 1.03-.016 2.196-.033 3.007-.844.81-.811.828-1.978.844-3.007.008-.553.017-1.125.16-1.47.155-.376.567-.805.964-1.22.7-.728 1.491-1.555 1.491-2.656 0-1.101-.792-1.927-1.49-2.656zM13.5 20.25a1.265 1.265 0 1 1 0-2.53 1.265 1.265 0 0 1 0 2.53zm.844-5.156v.094a.844.844 0 1 1-1.688 0v-.844a.844.844 0 0 1 .844-.843 2.11 2.11 0 1 0-2.11-2.11.844.844 0 0 1-1.687 0 3.797 3.797 0 1 1 4.64 3.703z" />
</svg>
