<svg width="31" height="31" viewBox="0 0 31 31" fill="none" xmlns="http://www.w3.org/2000/svg">
    <path d="M8.715 10.215a.914.914 0 0 0-1.313-.117l-5.625 4.687a.925.925 0 0 0 0 1.43l5.625 4.687a.913.913 0 0 0 1.313-.117.915.915 0 0 0-.117-1.313L3.84 15.5l4.758-3.973a.914.914 0 0 0 .117-1.312zM29.223 14.785l-5.625-4.687a.937.937 0 0 0-1.196 1.43L27.16 15.5l-4.758 3.973A.938.938 0 0 0 23 21.125a.902.902 0 0 0 .598-.223l5.625-4.687a.927.927 0 0 0 0-1.43zM19.566 4.309a.926.926 0 0 0-1.195.562l-7.5 20.625a.926.926 0 0 0 .563 1.195.926.926 0 0 0 1.195-.563l7.5-20.624a.925.925 0 0 0-.563-1.195z" fill="#000"/>
</svg>
