<svg width="21" height="21" viewBox="0 0 21 21" fill="none" xmlns="http://www.w3.org/2000/svg">
    <path d="m9.738 10.508.006.006a.668.668 0 0 0 .04.036l.023.017.026.02.027.016.025.014c.01.006.02.01.029.014l.027.013.028.01.03.01.028.008.03.007.033.005.028.004a.636.636 0 0 0 .123 0c.01 0 .019-.002.028-.004.01-.001.022-.002.033-.005l.03-.007.03-.008.029-.01.028-.01.027-.013c.01-.004.019-.008.028-.014l.025-.014c.01-.005.019-.01.028-.017l.025-.019.024-.017a.687.687 0 0 0 .04-.037l.006-.005 3.75-3.75a.624.624 0 1 0-.884-.884l-2.683 2.684V1.94a.625.625 0 1 0-1.25 0v6.617L6.872 5.874a.625.625 0 1 0-.884.884l3.75 3.75z" fill="#A3A8AF"/>
    <path d="M17.68 9.441h-4.224l-1.95 1.951a1.875 1.875 0 0 1-2.652 0l-1.951-1.95H2.68a1.251 1.251 0 0 0-1.25 1.25v5a1.252 1.252 0 0 0 1.25 1.25h15a1.252 1.252 0 0 0 1.25-1.25v-5a1.252 1.252 0 0 0-1.25-1.25zm-2.813 4.688a.937.937 0 1 1 0-1.875.937.937 0 0 1 0 1.875z" fill="#A3A8AF"/>
</svg>
