<svg width="20" height="21" viewBox="0 0 20 21" fill="none" xmlns="http://www.w3.org/2000/svg">
    <path d="M19.32 10.25c-.023-.063-.687-1.531-2.156-3.008C15.204 5.29 12.727 4.25 10 4.25c-2.726 0-5.203 1.04-7.164 2.992C1.367 8.72.703 10.188.68 10.25a.617.617 0 0 0 0 .5c.023.063.687 1.531 2.156 3.008C4.797 15.71 7.274 16.75 10 16.75c2.727 0 5.203-1.04 7.164-2.992 1.469-1.477 2.133-2.945 2.156-3.008a.617.617 0 0 0 0-.5zM10 7.687a2.812 2.812 0 1 1 0 5.625 2.812 2.812 0 0 1 0-5.624z" fill="#A3A8AF"/>
</svg>
