<svg width="19" height="19" viewBox="0 0 19 19" fill="none" xmlns="http://www.w3.org/2000/svg">
    <style>
        .like-icon{fill:black;}
    </style>
    <path class="like-icon" d="M13.8137 5.43212C13.6642 5.17267 13.449 4.9572 13.1898 4.80742C12.9305 4.65763 12.6364 4.57882 12.3369 4.57893C12.0375 4.57904 11.7434 4.65806 11.4843 4.80804C11.2252 4.95801 11.0101 5.17364 10.8609 5.43319L9.75136 3.51146C9.60046 3.24934 9.38247 3.03214 9.11981 2.88218C8.85715 2.73222 8.55929 2.65491 8.25686 2.6582C7.95442 2.66149 7.65831 2.74525 7.39898 2.90089C7.13964 3.05653 6.92643 3.27842 6.78126 3.54376C6.52925 3.25222 6.18592 3.05463 5.80723 2.9832C5.42854 2.91177 5.03682 2.97071 4.69592 3.15042C4.35503 3.33013 4.08505 3.62001 3.93 3.97281C3.77495 4.3256 3.74396 4.72052 3.8421 5.09318C3.56681 5.13351 3.30558 5.24064 3.08124 5.4052C2.85689 5.56976 2.67625 5.78675 2.5551 6.03722C2.43395 6.28769 2.37597 6.56401 2.38623 6.84205C2.39649 7.12009 2.47468 7.39139 2.61396 7.63224L2.87078 8.07709C2.57138 8.07666 2.27715 8.15513 2.01773 8.30461C1.75831 8.45408 1.54286 8.66927 1.39308 8.92852C1.2433 9.18776 1.16447 9.48189 1.16455 9.78129C1.16463 10.0807 1.2436 10.3748 1.39351 10.634L4.02229 15.1871C4.54889 16.0995 5.32464 16.8428 6.25861 17.33C7.19258 17.8172 8.24608 18.0281 9.29561 17.9379C10.3452 17.8477 11.3472 17.4603 12.1845 16.8209C13.0217 16.1816 13.6593 15.3169 14.0226 14.3281C14.9268 13.4696 15.5168 12.3324 15.6979 11.0988C15.879 9.86509 15.6408 8.60634 15.0215 7.52415L13.8137 5.43212ZM11.1662 16.4772C10.0889 17.0975 8.80941 17.2652 7.60856 16.9435C6.40771 16.6217 5.38352 15.8368 4.76066 14.7608L2.13189 10.2077C2.01883 10.0118 1.98819 9.77912 2.04672 9.5607C2.10525 9.34229 2.24814 9.15606 2.44397 9.04301C2.6398 8.92995 2.87252 8.89931 3.09093 8.95784C3.30935 9.01637 3.49557 9.15926 3.60863 9.35509L3.6087 9.35518L5.31378 12.3085C5.34175 12.357 5.37901 12.3995 5.42343 12.4337C5.46784 12.4678 5.51854 12.4928 5.57263 12.5073C5.62672 12.5218 5.68314 12.5255 5.73866 12.5182C5.79418 12.5109 5.84772 12.4927 5.89622 12.4647C5.94472 12.4367 5.98723 12.3995 6.02131 12.355C6.0554 12.3106 6.0804 12.2599 6.09488 12.2058C6.10936 12.1517 6.11304 12.0953 6.10571 12.0398C6.09838 11.9842 6.08018 11.9307 6.05215 11.8822L3.35233 7.20596C3.29635 7.109 3.26001 7.00196 3.2454 6.89096C3.23078 6.77996 3.23817 6.66716 3.26715 6.55902C3.29613 6.45087 3.34612 6.34949 3.41428 6.26067C3.48243 6.17184 3.56742 6.09731 3.66438 6.04133C3.76134 5.98535 3.86837 5.94902 3.97938 5.9344C4.09038 5.91979 4.20317 5.92718 4.31132 5.95616C4.41946 5.98513 4.52084 6.03513 4.60967 6.10328C4.69849 6.17144 4.77302 6.25642 4.829 6.35338L7.52882 11.0296C7.58539 11.1275 7.67849 11.1989 7.78767 11.2281C7.89685 11.2573 8.01316 11.242 8.11104 11.1855C8.20892 11.129 8.28035 11.0359 8.30964 10.9268C8.33892 10.8176 8.32365 10.7013 8.2672 10.6034L6.13576 6.9116V6.91157C6.0227 6.71575 5.99206 6.48304 6.05058 6.26463C6.1091 6.04622 6.25199 5.86 6.44781 5.74694C6.64363 5.63388 6.87634 5.60324 7.09475 5.66177C7.31316 5.72029 7.49937 5.86317 7.61243 6.05899L10.5964 11.2275C10.653 11.3253 10.7461 11.3967 10.8553 11.4259C10.9645 11.4551 11.0808 11.4398 11.1787 11.3833C11.2765 11.3268 11.348 11.2337 11.3773 11.1246C11.4065 11.0154 11.3913 10.8991 11.3348 10.8012L10.1981 8.83227L10.198 8.83222C10.085 8.6364 10.0544 8.40369 10.1129 8.18528C10.1714 7.96687 10.3143 7.78065 10.5101 7.6676C10.7059 7.55454 10.9386 7.5239 11.157 7.58242C11.3754 7.64094 11.5617 7.78383 11.6747 7.97964L12.8825 10.0717C13.1904 10.605 13.3903 11.1937 13.4707 11.8042C13.551 12.4147 13.5104 13.0351 13.351 13.6299C13.1916 14.2247 12.9167 14.7823 12.5418 15.2708C12.1669 15.7594 11.6995 16.1693 11.1662 16.4772L11.1662 16.4772ZM12.1553 2.26951L12.4495 1.17153C12.4789 1.06242 12.5503 0.969422 12.6482 0.912974C12.7461 0.856525 12.8624 0.84124 12.9715 0.870479C13.0807 0.899718 13.1737 0.971088 13.2303 1.06891C13.2868 1.16673 13.3022 1.283 13.2731 1.39217L12.9788 2.49015C12.9495 2.59926 12.878 2.69226 12.7802 2.7487C12.6823 2.80515 12.566 2.82044 12.4568 2.7912C12.3477 2.76196 12.2546 2.69059 12.1981 2.59277C12.1415 2.49495 12.1261 2.37868 12.1553 2.26951V2.26951ZM14.0069 2.96958L14.6589 2.0384C14.7238 1.94578 14.8228 1.88272 14.9341 1.86309C15.0455 1.84345 15.16 1.86885 15.2527 1.9337C15.3453 1.99855 15.4083 2.09753 15.428 2.20887C15.4476 2.32021 15.4222 2.43479 15.3574 2.52741L14.7053 3.45859C14.6404 3.55121 14.5415 3.61427 14.4301 3.6339C14.3188 3.65354 14.2042 3.62814 14.1116 3.56329C14.019 3.49845 13.9559 3.39946 13.9363 3.28812C13.9166 3.17678 13.942 3.0622 14.0069 2.96958V2.96958ZM16.9276 4.30708L15.9964 4.95913C15.9506 4.99124 15.8988 5.01401 15.8442 5.02612C15.7895 5.03824 15.733 5.03947 15.6779 5.02975C15.6228 5.02002 15.5701 4.99954 15.5229 4.96946C15.4757 4.93938 15.4348 4.90029 15.4027 4.85444C15.3706 4.80858 15.3479 4.75684 15.3357 4.70219C15.3236 4.64753 15.3224 4.59103 15.3321 4.5359C15.3418 4.48077 15.3623 4.42809 15.3924 4.38088C15.4225 4.33366 15.4616 4.29284 15.5074 4.26073L16.4386 3.60867C16.5312 3.54382 16.6458 3.51842 16.7572 3.53806C16.8685 3.55769 16.9675 3.62075 17.0323 3.71337C17.0972 3.80598 17.1226 3.92056 17.1029 4.0319C17.0833 4.14325 17.0202 4.24223 16.9276 4.30707L16.9276 4.30708Z" fill-opacity="0.8"/>
</svg>
