<svg width="21" height="20" viewBox="0 0 21 20" fill="none" xmlns="http://www.w3.org/2000/svg">
    <path d="M17.032 3.592a4.063 4.063 0 0 0-5.745 0L9.74 5.14a.625.625 0 1 0 .884.884l1.547-1.547a2.813 2.813 0 0 1 3.977 3.978l-2.21 2.21a2.816 2.816 0 0 1-3.977 0 .625.625 0 0 0-.884.883 4.067 4.067 0 0 0 5.746 0l2.21-2.21a4.063 4.063 0 0 0 0-5.745z" fill="#A3A8AF"/>
    <path d="m10.624 13.978-1.547 1.547a2.813 2.813 0 0 1-3.978-3.978l2.21-2.21a2.816 2.816 0 0 1 3.978 0 .627.627 0 0 0 1.067-.441.628.628 0 0 0-.183-.442 4.067 4.067 0 0 0-5.746 0l-2.21 2.21a4.062 4.062 0 0 0 5.746 5.745l1.547-1.547a.625.625 0 0 0-.884-.884z" fill="#A3A8AF"/>
</svg>
