<svg width="26" height="26" viewBox="0 0 26 26" fill="none" xmlns="http://www.w3.org/2000/svg">
<circle cx="13" cy="13" r="13" fill="#0097FF"/>
<path d="M12.6465 9.4647L13.884 8.22726C14.1393 7.9717 14.4425 7.76896 14.7762 7.6306C15.1099 7.49224 15.4675 7.42098 15.8288 7.4209C16.19 7.42081 16.5477 7.4919 16.8815 7.63011C17.2153 7.76831 17.5185 7.97092 17.774 8.22635C18.0294 8.48179 18.232 8.78505 18.3702 9.11881C18.5084 9.45258 18.5795 9.8103 18.5794 10.1715C18.5793 10.5328 18.5081 10.8905 18.3697 11.2242C18.2314 11.5579 18.0286 11.861 17.7731 12.1163L16.0053 13.8841C15.7499 14.1395 15.4468 14.342 15.1131 14.4802C14.7795 14.6184 14.4219 14.6896 14.0608 14.6896C13.6996 14.6896 13.342 14.6184 13.0084 14.4802C12.6747 14.342 12.3716 14.1395 12.1162 13.8841" stroke="white" stroke-width="2" stroke-linecap="round" stroke-linejoin="round"/>
<path d="M13.3538 16.5354L12.1163 17.7729C11.861 18.0284 11.5579 18.2312 11.2242 18.3695C10.8905 18.5079 10.5328 18.5791 10.1715 18.5792C9.8103 18.5793 9.45258 18.5082 9.11881 18.37C8.78505 18.2318 8.48179 18.0292 8.22635 17.7738C7.97092 17.5183 7.76831 17.2151 7.63011 16.8813C7.4919 16.5475 7.42081 16.1898 7.4209 15.8286C7.42098 15.4673 7.49224 15.1096 7.6306 14.776C7.76896 14.4423 7.9717 14.1391 8.22726 13.8838L9.99503 12.116C10.2504 11.8606 10.5535 11.6581 10.8872 11.5199C11.2208 11.3817 11.5784 11.3105 11.9396 11.3105C12.3007 11.3105 12.6583 11.3817 12.992 11.5199C13.3256 11.6581 13.6288 11.8606 13.8841 12.116" stroke="white" stroke-width="2" stroke-linecap="round" stroke-linejoin="round"/>
</svg>
