<svg width="35" height="35" viewBox="0 0 35 35" fill="none" xmlns="http://www.w3.org/2000/svg">
    <path d="M22.03 29.672a.532.532 0 0 1-.437.837H13.65a.531.531 0 0 1-.438-.837 5.313 5.313 0 0 1 8.819 0zm9.112.505a1.09 1.09 0 0 1-.797.332h-5.206a.544.544 0 0 1-.505-.359 7.437 7.437 0 0 0-14.025 0 .543.543 0 0 1-.505.359H4.898a1.062 1.062 0 0 1-.943-1.594c.04-.066 4.104-7.305 4.104-15.406a9.576 9.576 0 0 1 9.629-9.563c5.26.04 9.483 4.37 9.496 9.63.027 8.074 4.064 15.273 4.104 15.34a1.049 1.049 0 0 1-.146 1.26zM12.309 15.103a1.594 1.594 0 1 0 3.188 0 1.594 1.594 0 0 0-3.188 0zm10.519 4.303a1.09 1.09 0 0 0-1.435-.478l-3.771 1.899-3.772-1.9a1.07 1.07 0 0 0-.957 1.913l4.25 2.125a1.129 1.129 0 0 0 .957 0l4.25-2.125a1.09 1.09 0 0 0 .478-1.434zm.106-4.303a1.593 1.593 0 1 0-3.187 0 1.593 1.593 0 0 0 3.187 0z" fill="#000"/>
</svg>
