<svg width="24" height="24" viewBox="0 0 24 24" fill="none" xmlns="http://www.w3.org/2000/svg">
    <path d="m4.5 3.75 15 16.5M14.522 14.775a3.75 3.75 0 0 1-5.045-5.55" stroke="#333" stroke-width="2" stroke-linecap="round" stroke-linejoin="round"/>
    <path d="M6.937 6.43C3.115 8.367 1.5 12 1.5 12s3 6.75 10.5 6.75c1.757.013 3.493-.392 5.062-1.181M19.557 15.853C21.6 14.023 22.5 12 22.5 12s-3-6.75-10.5-6.75a11.75 11.75 0 0 0-1.94.157" stroke="#333" stroke-width="2" stroke-linecap="round" stroke-linejoin="round"/>
    <path d="M12.705 8.316a3.753 3.753 0 0 1 3.028 3.331" stroke="#333" stroke-width="2" stroke-linecap="round" stroke-linejoin="round"/>
</svg>
