<svg width="16" height="16" viewBox="0 0 16 16" fill="none" xmlns="http://www.w3.org/2000/svg">
    <path d="M15.666 8.16a9.317 9.317 0 0 0-.14-1.62H7.99v3.074h4.318a3.713 3.713 0 0 1-1.593 2.431v1.998h2.575a7.813 7.813 0 0 0 2.376-5.883z" fill="#4285F4"/>
    <path d="M7.99 15.997a7.658 7.658 0 0 0 5.3-1.931l-2.574-1.999A4.845 4.845 0 0 1 3.5 9.531H.854v2.059a7.98 7.98 0 0 0 7.137 4.407z" fill="#34A853"/>
    <path d="M3.506 9.53a4.807 4.807 0 0 1 0-3.058V4.413H.853a7.971 7.971 0 0 0 0 7.177l2.653-2.06z" fill="#FBBC04"/>
    <path d="M7.99 3.164a4.323 4.323 0 0 1 3.07 1.2l2.28-2.282A7.686 7.686 0 0 0 7.99.001 7.985 7.985 0 0 0 .855 4.402l2.652 2.06a4.779 4.779 0 0 1 4.485-3.298z" fill="#EA4335"/>
</svg>
