<svg width="21" height="20" viewBox="0 0 21 20" fill="none" xmlns="http://www.w3.org/2000/svg">
    <path d="M13.945 17.5a.625.625 0 0 1-.625.625h-5a.625.625 0 1 1 0-1.25h5a.625.625 0 0 1 .625.625zm5-12.5v8.75a1.877 1.877 0 0 1-1.875 1.875H4.57a1.877 1.877 0 0 1-1.875-1.875V5A1.877 1.877 0 0 1 4.57 3.125h12.5A1.877 1.877 0 0 1 18.945 5zm-5.312 4.375a.625.625 0 0 0-.29-.527L9.906 6.66a.625.625 0 0 0-.96.527v4.375a.625.625 0 0 0 .96.528l3.437-2.188a.625.625 0 0 0 .29-.527z" fill="#A3A8AF"/>
</svg>
