<svg width="140" height="32" viewBox="0 0 140 32" fill="none" xmlns="http://www.w3.org/2000/svg">
<g clip-path="url(#clip0_1_177)">
<path d="M11.177 12.4019C9.18659 12.4019 7.50238 14.0095 7.50238 16.0765C7.50238 18.0669 9.11004 19.7511 11.177 19.7511C13.1675 19.7511 14.8517 18.1435 14.8517 16.0765C14.7751 14.0095 13.1675 12.4019 11.177 12.4019Z" fill="#DC524F"/>
<path d="M16 0C7.11962 0 0 7.11962 0 16C0 24.8038 7.11962 32 16 32C24.8038 32 32 24.8804 32 16C32 7.11962 24.8038 0 16 0ZM26.8708 21.8947H24.4976V15.9234C24.4976 13.933 22.89 12.2488 20.823 12.2488C18.8325 12.2488 17.1483 13.8565 17.1483 15.9234V16C17.1483 19.2919 14.4689 22.0478 11.1005 22.0478C7.80861 22.0478 5.05263 19.3684 5.05263 16C5.05263 12.7081 7.73206 9.95215 11.1005 9.95215C13.0909 9.95215 14.7751 10.8708 15.9234 12.3254C16.9952 10.7943 18.756 9.79904 20.823 9.79904C24.1148 9.79904 26.8708 12.4785 26.8708 15.8469V21.8947Z" fill="#DC524F"/>
<path d="M118.737 24.8806L113.761 11.8662H117.512L120.344 19.981L123.177 11.8662H127.005L122.029 24.8806H118.737Z" fill="#DC524F"/>
<path d="M50.3732 18.4499C50.3732 19.3686 50.2201 20.2107 49.8373 21.0528C49.5311 21.8184 48.9952 22.5839 48.4593 23.1198C47.8469 23.7322 47.1579 24.1916 46.3923 24.4978C45.6268 24.804 44.7081 25.0337 43.866 25.0337C42.9473 25.0337 42.1052 24.8806 41.3397 24.4978C40.5741 24.1916 39.8086 23.7322 39.2727 23.1198C38.6603 22.5074 38.2009 21.8184 37.8947 21.0528C37.5885 20.2873 37.3588 19.3686 37.3588 18.4499C37.3588 17.5313 37.5119 16.6126 37.8947 15.8471C38.2009 15.005 38.7368 14.316 39.2727 13.7801C39.8851 13.1676 40.5741 12.7083 41.3397 12.4021C42.1052 12.0959 42.9473 11.8662 43.866 11.8662C44.7847 11.8662 45.6268 12.0193 46.3923 12.3255C47.1579 12.6318 47.8469 13.0911 48.4593 13.627C49.0717 14.2394 49.5311 14.9284 49.8373 15.694C50.2201 16.6126 50.3732 17.4547 50.3732 18.4499ZM47.0813 18.4499C47.0813 17.9141 47.0048 17.4547 46.8517 17.072C46.6985 16.6892 46.4689 16.3064 46.1627 16.0002C45.8564 15.694 45.5502 15.4643 45.0909 15.3112C44.7081 15.1581 44.2488 15.0815 43.7895 15.0815C43.3301 15.0815 42.9473 15.1581 42.488 15.3112C42.1052 15.4643 41.7225 15.694 41.4928 16.0002C41.1866 16.3064 40.9569 16.6892 40.8038 17.072C40.6507 17.4547 40.5741 17.9141 40.5741 18.4499C40.5741 18.9093 40.6507 19.3686 40.8038 19.7514C40.9569 20.1342 41.1866 20.5169 41.4928 20.8231C41.799 21.1294 42.1052 21.359 42.488 21.5121C42.8708 21.6653 43.3301 21.7418 43.7895 21.7418C44.2488 21.7418 44.6316 21.6653 45.0909 21.5121C45.4737 21.359 45.8564 21.1294 46.1627 20.8231C46.4689 20.5169 46.6985 20.2107 46.8517 19.7514C47.0048 19.4452 47.0813 18.9858 47.0813 18.4499Z" fill="#DC524F"/>
<path d="M104.957 24.8805H107.943V6.81348L104.957 8.19147V24.8805Z" fill="#DC524F"/>
<path d="M99.8277 19.4452H102.278C102.278 19.1389 102.354 18.8327 102.354 18.5265C102.354 17.5313 102.201 16.6126 101.818 15.7705C101.435 14.9284 100.976 14.2394 100.364 13.7035C99.7512 13.0911 99.0622 12.7083 98.2966 12.3255C97.4545 12.0193 96.6124 11.8662 95.6938 11.8662C94.7751 11.8662 93.933 12.0193 93.0909 12.4021C92.2488 12.7083 91.5598 13.1676 90.9473 13.7801C90.3349 14.3925 89.8756 15.0815 89.4928 15.8471C89.11 16.6892 88.9569 17.5313 88.9569 18.5265C88.9569 19.4452 89.11 20.3638 89.4928 21.1294C89.8756 21.9715 90.3349 22.6605 90.9473 23.1964C91.5598 23.8088 92.2488 24.2681 93.0909 24.5743C93.8564 24.8806 94.7751 25.1102 95.6938 25.1102C96.6124 25.1102 97.4545 24.9571 98.2966 24.5743C99.0622 24.2681 99.8277 23.8088 100.364 23.1964C100.976 22.5839 101.435 21.8949 101.818 21.1294C101.895 20.9763 101.895 20.8231 101.971 20.67H98.2966C98.2201 20.7466 98.1435 20.8997 98.067 20.9763C97.7608 21.2825 97.4545 21.5121 96.9952 21.6653C96.6124 21.8184 96.1531 21.8949 95.6938 21.8949C95.2344 21.8949 94.8517 21.8184 94.3923 21.6653C94.0096 21.5121 93.6268 21.2825 93.3206 20.9763C93.0143 20.67 92.7847 20.2873 92.6316 19.9045C92.555 19.7514 92.555 19.5983 92.4784 19.4452H99.8277ZM93.3971 16.0767C93.7033 15.7705 94.0095 15.5409 94.4689 15.3877C94.8517 15.2346 95.311 15.1581 95.7703 15.1581C96.2296 15.1581 96.6124 15.2346 97.0718 15.3877C97.4545 15.5409 97.8373 15.7705 98.1435 16.0767C98.4497 16.383 98.6794 16.6892 98.8325 17.072H92.8612C92.8612 16.6892 93.0909 16.383 93.3971 16.0767Z" fill="#DC524F"/>
<path d="M137.033 19.292H139.407C139.407 18.9858 139.483 18.6796 139.483 18.3734C139.483 17.3782 139.33 16.5361 138.947 15.694C138.641 14.9284 138.105 14.2394 137.569 13.627C136.957 13.0911 136.268 12.6318 135.502 12.3255C134.737 12.0193 133.895 11.8662 132.976 11.8662C132.057 11.8662 131.215 12.0193 130.45 12.3255C129.684 12.6318 128.995 13.0911 128.383 13.7035C127.77 14.316 127.311 15.005 127.005 15.7705C126.699 16.5361 126.469 17.4547 126.469 18.3734C126.469 19.292 126.622 20.1342 127.005 20.9763C127.311 21.7418 127.847 22.4308 128.383 23.0432C128.995 23.6557 129.684 24.115 130.45 24.4212C131.215 24.7275 132.057 24.9571 132.976 24.9571C133.895 24.9571 134.737 24.804 135.502 24.4212C136.268 24.115 136.957 23.6557 137.569 23.0432C138.182 22.4308 138.641 21.7418 138.947 20.9763C139.024 20.8231 139.024 20.67 139.1 20.5169H135.502C135.426 20.5935 135.349 20.7466 135.273 20.8231C134.966 21.1294 134.66 21.359 134.277 21.5121C133.895 21.6653 133.435 21.7418 133.053 21.7418C132.593 21.7418 132.211 21.6653 131.828 21.5121C131.445 21.359 131.062 21.1294 130.833 20.8231C130.526 20.5169 130.297 20.1342 130.144 19.7514C130.067 19.5983 130.067 19.4452 129.99 19.292H137.033ZM130.679 16.0002C130.986 15.694 131.292 15.4643 131.675 15.3112C132.057 15.1581 132.517 15.0815 132.9 15.0815C133.359 15.0815 133.742 15.1581 134.124 15.3112C134.507 15.4643 134.89 15.694 135.12 16.0002C135.426 16.3064 135.655 16.6126 135.809 16.9954H129.914C130.22 16.6126 130.45 16.3064 130.679 16.0002Z" fill="#DC524F"/>
<path d="M79.311 24.957H75.7894V8.19147L79.311 6.81348V12.7082C79.6937 12.402 80.1531 12.1723 80.6124 12.0958C81.0717 11.9427 81.5311 11.9427 81.9904 11.9427C82.8325 11.9427 83.598 12.0958 84.3636 12.402C85.1291 12.7082 85.7416 13.091 86.2775 13.6269C86.8134 14.1628 87.2727 14.7752 87.5789 15.4642C87.8851 16.0766 88.0382 16.8422 88.0382 17.6077V24.8805H84.5167V17.6077C84.5167 17.3015 84.4402 16.9187 84.287 16.6125C84.1339 16.3063 83.9808 16.0766 83.7512 15.847C83.5215 15.6173 83.2153 15.4642 82.9091 15.3111C82.6028 15.158 82.2201 15.0814 81.9138 15.0814C81.5311 15.0814 81.2248 15.158 80.8421 15.3111C80.5358 15.4642 80.2296 15.6173 80 15.847C79.7703 16.0766 79.5406 16.3063 79.4641 16.6125C79.311 16.9187 79.2344 17.225 79.2344 17.6077V24.957H79.311Z" fill="#DC524F"/>
<path d="M113.148 8.72735C113.148 9.03357 113.072 9.26324 112.995 9.4929C112.919 9.72257 112.766 9.95223 112.536 10.1053C112.383 10.2585 112.153 10.4116 111.923 10.4881C111.694 10.5647 111.464 10.6412 111.158 10.6412C110.852 10.6412 110.622 10.5647 110.392 10.4881C110.163 10.4116 109.933 10.2585 109.78 10.1053C109.627 9.95223 109.474 9.72257 109.397 9.4929C109.321 9.26324 109.244 9.03357 109.244 8.72735C109.244 8.49769 109.321 8.19147 109.397 7.9618C109.474 7.73214 109.627 7.50247 109.78 7.34936C109.933 7.19625 110.163 7.04314 110.392 6.96659C110.622 6.89003 110.852 6.81348 111.158 6.81348C111.464 6.81348 111.694 6.89003 111.923 6.96659C112.153 7.04314 112.383 7.19625 112.536 7.34936C112.689 7.50247 112.842 7.73214 112.995 7.9618C113.148 8.26802 113.148 8.49769 113.148 8.72735Z" fill="#DC524F"/>
<path d="M112.689 11.8662H109.703V24.804H112.689V11.8662Z" fill="#DC524F"/>
<path d="M63.0813 15.6941C62.7751 14.9285 62.3158 14.3161 61.7799 13.7036C61.244 13.1678 60.555 12.7084 59.866 12.4022C59.1004 12.096 58.3349 11.9429 57.4928 11.9429C56.6507 11.9429 55.8851 12.096 55.1196 12.4022C54.354 12.7084 53.7416 13.1678 53.2057 13.7036C52.6698 14.2395 52.2105 14.9285 51.9043 15.6941C51.5981 16.4596 51.4449 17.2252 51.4449 18.0673V25.0338H54.9665V18.0673C54.9665 17.6845 55.043 17.3783 55.1961 17.0721C55.3493 16.7658 55.5024 16.4596 55.732 16.23C55.9617 16.0003 56.2679 15.7706 56.5741 15.6941C56.8804 15.541 57.2631 15.4644 57.5693 15.4644C57.9521 15.4644 58.2583 15.541 58.5646 15.6941C58.8708 15.8472 59.177 16.0003 59.4067 16.23C59.6363 16.4596 59.866 16.7658 59.9426 17.0721C60.0957 17.3783 60.1722 17.7611 60.1722 18.0673V25.0338H63.5406V18.0673C63.5406 17.2252 63.3875 16.3831 63.0813 15.6941Z" fill="#DC524F"/>
<path d="M74.7176 11.9427H72.0382V6.81348L68.5167 8.19147V11.9427H65.8373V14.9283H68.5167V24.957H72.0382V14.9283H74.7176V11.9427Z" fill="#DC524F"/>
</g>
<defs>
<clipPath id="clip0_1_177">
<rect width="139.483" height="32" fill="white"/>
</clipPath>
</defs>
</svg>
