<svg width="21" height="21" viewBox="0 0 21 21" fill="none" xmlns="http://www.w3.org/2000/svg">
    <style>
        .paperclip{fill:#A3A8AF;}
    </style>
<path class="paperclip" d="M17.1685 9.89444C17.2856 10.0117 17.3514 10.1707 17.3512 10.3365C17.3511 10.5022 17.2852 10.6612 17.1679 10.7783L10.7575 17.1804C10.3512 17.5866 9.86891 17.9088 9.3381 18.1287C8.80729 18.3485 8.23837 18.4616 7.66384 18.4616C6.50352 18.4615 5.39074 18.0006 4.57031 17.18C3.74988 16.3595 3.289 15.2467 3.28906 14.0864C3.28912 12.9261 3.75012 11.8133 4.57063 10.9928L12.326 3.12953C12.6159 2.83877 12.9602 2.60799 13.3394 2.45037C13.7185 2.29275 14.125 2.21139 14.5355 2.21094C14.9461 2.21049 15.3528 2.29095 15.7323 2.44774C16.1117 2.60452 16.4566 2.83455 16.7471 3.12467C17.0377 3.4148 17.2682 3.75933 17.4255 4.13859C17.5828 4.51784 17.6638 4.92438 17.664 5.33497C17.6641 5.74555 17.5833 6.15214 17.4262 6.53149C17.2691 6.91084 17.0388 7.25551 16.7484 7.54581L8.99305 15.4092C8.81919 15.5837 8.61265 15.7222 8.38522 15.8169C8.1578 15.9115 7.91396 15.9604 7.66763 15.9608C7.4213 15.9611 7.17732 15.913 6.94962 15.819C6.72191 15.725 6.51496 15.5871 6.34058 15.4131C6.1662 15.2391 6.02781 15.0325 5.93332 14.805C5.83883 14.5775 5.79009 14.3337 5.78989 14.0873C5.78969 13.841 5.83802 13.5971 5.93214 13.3694C6.02626 13.1418 6.16431 12.9349 6.3384 12.7607L12.8432 6.1478C12.9594 6.02963 13.1179 5.96248 13.2836 5.96112C13.4494 5.95976 13.6089 6.0243 13.7271 6.14055C13.8452 6.2568 13.9124 6.41522 13.9137 6.58098C13.9151 6.74674 13.8505 6.90625 13.7343 7.02442L7.22589 13.6409C7.16715 13.6986 7.12038 13.7673 7.08828 13.8432C7.05618 13.919 7.03937 14.0004 7.03883 14.0827C7.03829 14.1651 7.05401 14.2467 7.08511 14.3229C7.11621 14.3992 7.16207 14.4685 7.22005 14.527C7.27802 14.5854 7.34698 14.6319 7.42296 14.6636C7.49893 14.6953 7.58043 14.7117 7.66276 14.7119C7.74509 14.712 7.82664 14.6959 7.90273 14.6644C7.97881 14.6329 8.04792 14.5867 8.1061 14.5285L15.8615 6.66499C16.0362 6.49116 16.1748 6.28461 16.2696 6.05714C16.3643 5.82968 16.4133 5.58577 16.4138 5.33936C16.4142 5.09295 16.366 4.84888 16.2721 4.62109C16.1781 4.3933 16.0402 4.18627 15.8661 4.01183C15.6921 3.83739 15.4854 3.69897 15.2578 3.60448C15.0302 3.50999 14.7862 3.46128 14.5398 3.46115C14.2934 3.46101 14.0494 3.50944 13.8217 3.60368C13.5941 3.69791 13.3872 3.8361 13.2129 4.01035L5.45755 11.8737C5.16678 12.1636 4.93599 12.5079 4.77837 12.887C4.62075 13.2662 4.53939 13.6727 4.53894 14.0833C4.53849 14.4938 4.61896 14.9005 4.77574 15.28C4.93253 15.6595 5.16256 16.0043 5.45269 16.2949C5.74282 16.5854 6.08736 16.8159 6.46662 16.9732C6.84589 17.1305 7.25243 17.2116 7.66302 17.2117C8.07362 17.2118 8.48021 17.131 8.85956 16.9739C9.23892 16.8169 9.5836 16.5866 9.8739 16.2962L16.2846 9.89391C16.3426 9.83589 16.4116 9.78989 16.4874 9.75851C16.5633 9.72714 16.6446 9.71102 16.7266 9.71107C16.8087 9.71112 16.89 9.72734 16.9658 9.7588C17.0416 9.79027 17.1105 9.83636 17.1685 9.89444V9.89444Z" />
</svg>
