<svg width="17" height="16" viewBox="0 0 17 16" fill="none" xmlns="http://www.w3.org/2000/svg">
<path fill-rule="evenodd" clip-rule="evenodd" d="M5.5 2C5.5 0.895431 6.39543 0 7.5 0H9.5C10.6046 0 11.5 0.895431 11.5 2V3H14.5C15.0523 3 15.5 3.44772 15.5 4C15.5 4.55228 15.0523 5 14.5 5H14.3462L13.642 14.1534C13.5619 15.1954 12.693 16 11.6479 16H5.35206C4.30699 16 3.43811 15.1954 3.35795 14.1534L2.65385 5H2.5C1.94772 5 1.5 4.55228 1.5 4C1.5 3.44772 1.94772 3 2.5 3H5.5V2ZM7.5 3H9.5V2H7.5V3ZM4.65975 5L5.35206 14L11.6479 14L12.3402 5H4.65975Z" fill="black"/>
</svg>
