<svg width="22" height="23" viewBox="0 0 22 23" fill="none" xmlns="http://www.w3.org/2000/svg">
<path d="M17.875 12.875H4.125C3.7453 12.875 3.4375 13.1828 3.4375 13.5625V17C3.4375 17.3797 3.7453 17.6875 4.125 17.6875H17.875C18.2547 17.6875 18.5625 17.3797 18.5625 17V13.5625C18.5625 13.1828 18.2547 12.875 17.875 12.875Z" stroke="black" stroke-linecap="round" stroke-linejoin="round"/>
<path d="M17.875 5.3125H4.125C3.7453 5.3125 3.4375 5.6203 3.4375 6V9.4375C3.4375 9.8172 3.7453 10.125 4.125 10.125H17.875C18.2547 10.125 18.5625 9.8172 18.5625 9.4375V6C18.5625 5.6203 18.2547 5.3125 17.875 5.3125Z" stroke="black" stroke-linecap="round" stroke-linejoin="round"/>
</svg>
