<svg width="16" height="17" viewBox="0 0 16 17" fill="none" xmlns="http://www.w3.org/2000/svg">
<path d="M11.2929 4.27727C11.6834 3.88674 12.3166 3.88674 12.7071 4.27727C13.0976 4.66779 13.0976 5.30096 12.7071 5.69148L9.41421 8.98438L12.7071 12.2773C13.0976 12.6678 13.0976 13.301 12.7071 13.6915C12.3166 14.082 11.6834 14.082 11.2929 13.6915L8 10.3986L4.70711 13.6915C4.31658 14.082 3.68342 14.082 3.29289 13.6915C2.90237 13.301 2.90237 12.6678 3.29289 12.2773L6.58579 8.98438L3.29289 5.69148C2.90237 5.30096 2.90237 4.66779 3.29289 4.27727C3.68342 3.88674 4.31658 3.88674 4.70711 4.27727L8 7.57016L11.2929 4.27727Z" fill="#5E5E5E"/>
</svg>
