<svg width="53" height="16" viewBox="0 0 53 16" fill="none" xmlns="http://www.w3.org/2000/svg">
    <path d="m8.622 11.919 3.15 2c.406.256.906-.125.787-.594l-.912-3.587a.544.544 0 0 1 .18-.55l2.826-2.357c.369-.306.181-.925-.3-.956l-3.688-.237a.519.519 0 0 1-.456-.338L8.834 1.838a.519.519 0 0 0-.975 0L6.484 5.3a.519.519 0 0 1-.456.338l-3.688.237c-.48.031-.668.65-.3.956l2.825 2.357a.544.544 0 0 1 .182.55l-.844 3.325c-.144.562.456 1.018.937.712l2.932-1.856a.512.512 0 0 1 .55 0v0zM26.622 11.919l3.15 2c.406.256.906-.125.787-.594l-.912-3.587a.544.544 0 0 1 .18-.55l2.826-2.357c.369-.306.181-.925-.3-.956l-3.688-.237a.519.519 0 0 1-.456-.338l-1.375-3.462a.519.519 0 0 0-.975 0L24.484 5.3a.518.518 0 0 1-.456.338l-3.688.237c-.48.031-.668.65-.3.956l2.825 2.357a.544.544 0 0 1 .182.55l-.844 3.325c-.144.562.456 1.018.937.712l2.932-1.856a.512.512 0 0 1 .55 0v0zM44.622 11.919l3.15 2c.406.256.906-.125.787-.594l-.912-3.587a.544.544 0 0 1 .18-.55l2.826-2.357c.369-.306.181-.925-.3-.956l-3.688-.237a.519.519 0 0 1-.456-.338l-1.375-3.462a.519.519 0 0 0-.975 0L42.484 5.3a.518.518 0 0 1-.456.338l-3.688.237c-.48.031-.668.65-.3.956l2.825 2.357a.544.544 0 0 1 .182.55l-.844 3.325c-.144.562.456 1.018.937.712l2.932-1.856a.512.512 0 0 1 .55 0v0z" stroke="#000" stroke-width="1.5" stroke-linecap="round" stroke-linejoin="round"/>
</svg>
