<svg width="35" height="35" viewBox="0 0 35 35" fill="none" xmlns="http://www.w3.org/2000/svg">
    <path d="M15.496 19.884v6.853a1.076 1.076 0 0 1-.385.823c-.19.158-.43.243-.677.24h-.186l-8.5-1.541a1.062 1.062 0 0 1-.877-1.063v-5.312a1.063 1.063 0 0 1 1.063-1.063h8.5a1.063 1.063 0 0 1 1.062 1.063zm-.385-11.927a1.064 1.064 0 0 0-.863-.226l-8.5 1.541a1.063 1.063 0 0 0-.877 1.05v5.312a1.062 1.062 0 0 0 1.063 1.062h8.5a1.062 1.062 0 0 0 1.062-1.062V8.78a1.076 1.076 0 0 0-.385-.824zM29.31 18.821H18.684a1.063 1.063 0 0 0-1.063 1.063v7.636a1.063 1.063 0 0 0 .877 1.036l10.625 1.94h.186a.983.983 0 0 0 .677-.253 1.051 1.051 0 0 0 .385-.797v-9.562a1.062 1.062 0 0 0-1.062-1.063zm.677-13.56a1.023 1.023 0 0 0-.863-.239L18.498 6.961a1.062 1.062 0 0 0-.877 1.036v7.637a1.063 1.063 0 0 0 1.063 1.062h10.625a1.062 1.062 0 0 0 1.062-1.062V6.07a1.049 1.049 0 0 0-.385-.81z" fill="#000"/>
</svg>
