<svg width="18" height="17" viewBox="0 0 18 17" fill="none" xmlns="http://www.w3.org/2000/svg">
<path d="M15.9343 3.61654L13.6803 1.36262C13.5807 1.263 13.4456 1.20703 13.3047 1.20703C13.1638 1.20703 13.0287 1.26301 12.929 1.36264C12.8294 1.46227 12.7734 1.5974 12.7734 1.73829C12.7734 1.87919 12.8294 2.01432 12.929 2.11394L15.1829 4.36783C15.2323 4.41716 15.2908 4.45629 15.3553 4.48299C15.4197 4.50969 15.4888 4.52344 15.5586 4.52344C15.6283 4.52344 15.6974 4.5097 15.7619 4.483C15.8263 4.45631 15.8849 4.41718 15.9342 4.36785C15.9836 4.31852 16.0227 4.25995 16.0494 4.1955C16.0761 4.13105 16.0898 4.06196 16.0898 3.9922C16.0898 3.92243 16.0761 3.85335 16.0494 3.7889C16.0227 3.72444 15.9836 3.66588 15.9343 3.61654H15.9343Z" fill="#00C880"/>
<path d="M4.66471 1.36262C4.56508 1.263 4.42996 1.20703 4.28906 1.20703C4.14817 1.20703 4.01305 1.263 3.91342 1.36262L1.6595 3.61654C1.55987 3.71618 1.5039 3.8513 1.50391 3.9922C1.50391 4.1331 1.55988 4.26822 1.65951 4.36785C1.75915 4.46747 1.89427 4.52344 2.03517 4.52344C2.17607 4.52343 2.31119 4.46746 2.41082 4.36783L4.66471 2.11394C4.76433 2.01431 4.8203 1.87918 4.8203 1.73828C4.8203 1.59738 4.76433 1.46226 4.66471 1.36262V1.36262Z" fill="#00C880"/>
<path d="M15.169 8.31563C15.1677 8.26797 15.166 8.2204 15.1636 8.17293C15.1635 8.17128 15.1634 8.16966 15.1633 8.16803C15.0812 6.59421 14.4191 5.10657 13.3047 3.99219C12.1903 2.87781 10.7027 2.21569 9.12884 2.13359C9.12722 2.1335 9.1256 2.13337 9.12394 2.1333C9.07647 2.1309 9.02891 2.12922 8.98124 2.12786C8.97411 2.12766 8.96701 2.12727 8.95984 2.12708C8.90563 2.12571 8.85131 2.12502 8.79688 2.125C8.74243 2.125 8.68811 2.12569 8.63391 2.12708C8.62674 2.12727 8.61964 2.12766 8.61251 2.12785C8.56484 2.12922 8.51728 2.1309 8.46981 2.1333C8.46815 2.13337 8.46653 2.13349 8.46491 2.13359C6.89109 2.2157 5.40345 2.87783 4.28908 3.9922C3.17471 5.10658 2.51258 6.59421 2.43047 8.16804C2.43037 8.16966 2.43024 8.17128 2.43018 8.17293C2.42778 8.2204 2.42609 8.26797 2.42473 8.31563C2.42454 8.32277 2.42415 8.32987 2.42395 8.33703C2.42259 8.39125 2.4219 8.44557 2.42188 8.5C2.42188 8.55444 2.42257 8.60876 2.42395 8.66297C2.42414 8.67013 2.42453 8.67724 2.42473 8.68437C2.42609 8.73203 2.42778 8.7796 2.43017 8.82707C2.43024 8.82873 2.43037 8.83035 2.43047 8.83197C2.51256 10.4058 3.17469 11.8934 4.28906 13.0078C5.40344 14.1222 6.89108 14.7843 8.46491 14.8664C8.46653 14.8665 8.46815 14.8666 8.46981 14.8667C8.51728 14.8691 8.56484 14.8708 8.61251 14.8721C8.61964 14.8723 8.62674 14.8727 8.63391 14.8729C8.68812 14.8743 8.74245 14.875 8.79688 14.875C8.85132 14.875 8.90564 14.8743 8.95984 14.8729C8.96701 14.8727 8.97411 14.8723 8.98124 14.8721C9.02891 14.8708 9.07648 14.8691 9.12395 14.8667C9.1256 14.8666 9.12722 14.8665 9.12884 14.8664C10.7027 14.7843 12.1903 14.1222 13.3047 13.0078C14.419 11.8934 15.0812 10.4058 15.1633 8.83197C15.1634 8.83034 15.1635 8.82872 15.1636 8.82707C15.166 8.7796 15.1677 8.73203 15.169 8.68437C15.1692 8.67723 15.1696 8.67013 15.1698 8.66297C15.1712 8.60875 15.1719 8.55443 15.1719 8.5C15.1719 8.44556 15.1712 8.39124 15.1698 8.33703C15.1696 8.32987 15.1692 8.32277 15.169 8.31563ZM12.5156 9.03125H8.79688C8.65598 9.03125 8.52086 8.97528 8.42123 8.87565C8.3216 8.77602 8.26563 8.6409 8.26563 8.5V4.78125C8.26563 4.64035 8.3216 4.50523 8.42123 4.4056C8.52085 4.30597 8.65598 4.25 8.79688 4.25C8.93777 4.25 9.0729 4.30597 9.17253 4.4056C9.27216 4.50523 9.32813 4.64035 9.32813 4.78125V7.96875H12.5156C12.6565 7.96875 12.7916 8.02472 12.8913 8.12435C12.9909 8.22398 13.0469 8.3591 13.0469 8.5C13.0469 8.6409 12.9909 8.77602 12.8913 8.87565C12.7916 8.97528 12.6565 9.03125 12.5156 9.03125Z" fill="#00C880"/>
</svg>
