<svg width="35" height="35" viewBox="0 0 35 35" fill="none" xmlns="http://www.w3.org/2000/svg">
    <path d="m28.127 12.54-.306-.293 3.307-3.293a1.075 1.075 0 0 0-1.514-1.514l-3.44 3.453a14.809 14.809 0 0 0-17.08.026L5.629 7.44a1.076 1.076 0 0 0-1.514 1.515l3.334 3.32a15.06 15.06 0 0 0-4.702 10.944v3.041a2.125 2.125 0 0 0 2.125 2.125h25.5a2.125 2.125 0 0 0 2.125-2.125v-3.187a14.768 14.768 0 0 0-4.37-10.532zM12.84 23.072a1.594 1.594 0 1 1 0-3.188 1.594 1.594 0 0 1 0 3.188zm9.562 0a1.594 1.594 0 1 1 0-3.188 1.594 1.594 0 0 1 0 3.188z" fill="#000"/>
</svg>
