<svg width="20" height="21" viewBox="0 0 20 21" fill="none" xmlns="http://www.w3.org/2000/svg">
    <style>
        .aside-user{fill:#A3A8AF;}
    </style>
    <path class="aside-user" d="M18.1199 16.6396C16.9537 14.631 15.0861 13.1244 12.8761 12.4097C13.9348 11.7798 14.7575 10.8197 15.2177 9.67695C15.6779 8.53421 15.7502 7.27198 15.4235 6.08415C15.0969 4.89632 14.3893 3.84858 13.4095 3.10184C12.4297 2.35511 11.2318 1.95068 9.99986 1.95068C8.76793 1.95068 7.57007 2.35511 6.59026 3.10184C5.61044 3.84858 4.90287 4.89632 4.57621 6.08415C4.24955 7.27198 4.32187 8.53421 4.78207 9.67695C5.24226 10.8197 6.06488 11.7798 7.12357 12.4097C4.91374 13.1244 3.04615 14.6309 1.87993 16.6394C1.82496 16.7344 1.79598 16.8422 1.7959 16.952C1.79582 17.0618 1.82465 17.1696 1.87948 17.2647C1.93432 17.3598 2.01323 17.4387 2.10827 17.4936C2.20331 17.5485 2.31113 17.5774 2.42089 17.5774L17.5789 17.5776C17.6887 17.5776 17.7965 17.5487 17.8916 17.4938C17.9866 17.4389 18.0655 17.3599 18.1204 17.2649C18.1752 17.1698 18.204 17.0619 18.2039 16.9522C18.2039 16.8424 18.1749 16.7346 18.1199 16.6396L18.1199 16.6396Z" fill="#A3A8AF"/>
</svg>
