<svg width="20" height="20" viewBox="0 0 20 20" fill="none" xmlns="http://www.w3.org/2000/svg">
<path d="M10 17.5C14.1421 17.5 17.5 14.1421 17.5 10C17.5 5.85786 14.1421 2.5 10 2.5C5.85786 2.5 2.5 5.85786 2.5 10C2.5 14.1421 5.85786 17.5 10 17.5Z" stroke="#A3A8AF" stroke-width="1.5" stroke-linecap="round" stroke-linejoin="round"/>
<path d="M2.92676 7.5H17.0725" stroke="#A3A8AF" stroke-width="1.5" stroke-linecap="round" stroke-linejoin="round"/>
<path d="M2.92773 12.5H17.0734" stroke="#A3A8AF" stroke-width="1.5" stroke-linecap="round" stroke-linejoin="round"/>
<path d="M10 17.2985C11.7259 17.2985 13.125 14.0308 13.125 9.99984C13.125 5.9689 11.7259 2.70117 10 2.70117C8.27411 2.70117 6.875 5.9689 6.875 9.99984C6.875 14.0308 8.27411 17.2985 10 17.2985Z" stroke="#A3A8AF" stroke-width="1.5" stroke-linecap="round" stroke-linejoin="round"/>
</svg>
