<svg width="64" height="64" viewBox="0 0 64 64" fill="none" xmlns="http://www.w3.org/2000/svg">
<path d="M54 12H10C8.89543 12 8 12.8954 8 14V50C8 51.1046 8.89543 52 10 52H54C55.1046 52 56 51.1046 56 50V14C56 12.8954 55.1046 12 54 12Z" stroke="black" stroke-width="2" stroke-linecap="round" stroke-linejoin="round"/>
<path d="M8 42.0001L20.5858 29.4144C20.7715 29.2287 20.9919 29.0814 21.2346 28.9809C21.4772 28.8803 21.7373 28.8286 22 28.8286C22.2626 28.8286 22.5227 28.8803 22.7653 28.9809C23.008 29.0814 23.2285 29.2287 23.4142 29.4144L34.5858 40.586C34.7715 40.7717 34.9919 40.919 35.2346 41.0195C35.4772 41.12 35.7373 41.1718 36 41.1718C36.2626 41.1718 36.5227 41.12 36.7653 41.0195C37.008 40.919 37.2285 40.7717 37.4142 40.586L42.5858 35.4144C42.7715 35.2287 42.9919 35.0814 43.2346 34.9809C43.4772 34.8803 43.7373 34.8286 44 34.8286C44.2626 34.8286 44.5227 34.8803 44.7653 34.9809C45.008 35.0814 45.2285 35.2287 45.4142 35.4144L56 46.0002" stroke="black" stroke-width="2" stroke-linecap="round" stroke-linejoin="round"/>
<path d="M39 28C40.6569 28 42 26.6569 42 25C42 23.3431 40.6569 22 39 22C37.3431 22 36 23.3431 36 25C36 26.6569 37.3431 28 39 28Z" fill="black"/>
</svg>
