<svg width="16" height="16" viewBox="0 0 16 16" fill="none" xmlns="http://www.w3.org/2000/svg">
<path d="M13 2H11.5V1.5C11.5 1.36739 11.4473 1.24021 11.3536 1.14645C11.2598 1.05268 11.1326 1 11 1C10.8674 1 10.7402 1.05268 10.6464 1.14645C10.5527 1.24021 10.5 1.36739 10.5 1.5V2H5.5V1.5C5.5 1.36739 5.44732 1.24021 5.35355 1.14645C5.25979 1.05268 5.13261 1 5 1C4.86739 1 4.74021 1.05268 4.64645 1.14645C4.55268 1.24021 4.5 1.36739 4.5 1.5V2H3C2.73486 2.00026 2.48066 2.1057 2.29318 2.29318C2.1057 2.48066 2.00026 2.73486 2 3V13C2.00026 13.2651 2.1057 13.5193 2.29318 13.7068C2.48066 13.8943 2.73486 13.9997 3 14H13C13.2651 13.9997 13.5193 13.8943 13.7068 13.7068C13.8943 13.5193 13.9997 13.2651 14 13V3C13.9997 2.73486 13.8943 2.48066 13.7068 2.29318C13.5193 2.1057 13.2651 2.00026 13 2ZM13 5H3V3H4.5V3.5C4.5 3.63261 4.55268 3.75979 4.64645 3.85355C4.74021 3.94732 4.86739 4 5 4C5.13261 4 5.25979 3.94732 5.35355 3.85355C5.44732 3.75979 5.5 3.63261 5.5 3.5V3H10.5V3.5C10.5 3.63261 10.5527 3.75979 10.6464 3.85355C10.7402 3.94732 10.8674 4 11 4C11.1326 4 11.2598 3.94732 11.3536 3.85355C11.4473 3.75979 11.5 3.63261 11.5 3.5V3H13V5Z" fill="#A3A8AF"/>
</svg>
