<svg width="19" height="19" viewBox="0 0 19 19" fill="none" xmlns="http://www.w3.org/2000/svg">
<path d="M9.09309 2.18604C7.80973 2.18626 6.54854 2.52068 5.43369 3.15638C4.31883 3.79208 3.38873 4.70714 2.73495 5.81149C2.08117 6.91584 1.72624 8.17141 1.7051 9.4546C1.68397 10.7378 1.99735 12.0044 2.6144 13.1296L2.00661 15.2544C1.95077 15.4494 1.94811 15.6557 1.99891 15.852C2.04971 16.0484 2.15212 16.2275 2.29552 16.3709C2.43892 16.5143 2.61807 16.6167 2.8144 16.6675C3.01073 16.7183 3.21708 16.7157 3.41203 16.6598L5.53736 16.0537C6.52508 16.5958 7.62366 16.9048 8.74913 16.9571C9.87459 17.0095 10.9971 16.8038 12.0309 16.3558C13.0647 15.9078 13.9823 15.2293 14.7137 14.3723C15.445 13.5152 15.9707 12.5023 16.2505 11.4109C16.5304 10.3195 16.5569 9.17864 16.3282 8.07542C16.0995 6.9722 15.6215 5.93589 14.9308 5.04573C14.2402 4.15557 13.3551 3.43512 12.3433 2.93948C11.3315 2.44384 10.2198 2.18612 9.09309 2.18604H9.09309ZM5.68272 10.427C5.51409 10.427 5.34926 10.377 5.20905 10.2834C5.06885 10.1897 4.95957 10.0565 4.89504 9.90074C4.83051 9.74495 4.81363 9.57352 4.84652 9.40814C4.87942 9.24276 4.96062 9.09084 5.07985 8.97161C5.19909 8.85237 5.351 8.77117 5.51639 8.73828C5.68177 8.70538 5.8532 8.72226 6.00898 8.78679C6.16477 8.85132 6.29793 8.9606 6.39161 9.1008C6.48529 9.24101 6.53529 9.40585 6.53529 9.57447C6.53529 9.80059 6.44547 10.0174 6.28558 10.1773C6.12569 10.3372 5.90883 10.427 5.68272 10.427V10.427ZM9.09302 10.427C8.9244 10.427 8.75956 10.377 8.61935 10.2834C8.47915 10.1897 8.36987 10.0565 8.30534 9.90074C8.24081 9.74495 8.22393 9.57352 8.25683 9.40814C8.28972 9.24276 8.37092 9.09084 8.49016 8.97161C8.60939 8.85237 8.76131 8.77117 8.92669 8.73828C9.09207 8.70538 9.2635 8.72226 9.41929 8.78679C9.57507 8.85132 9.70823 8.9606 9.80191 9.1008C9.89559 9.24101 9.9456 9.40585 9.9456 9.57447C9.9456 9.80059 9.85577 10.0174 9.69588 10.1773C9.53599 10.3372 9.31914 10.427 9.09302 10.427ZM12.5033 10.427C12.3347 10.427 12.1699 10.377 12.0297 10.2834C11.8895 10.1897 11.7802 10.0565 11.7156 9.90074C11.6511 9.74495 11.6342 9.57352 11.6671 9.40814C11.7 9.24276 11.7812 9.09084 11.9005 8.97161C12.0197 8.85237 12.1716 8.77117 12.337 8.73828C12.5024 8.70538 12.6738 8.72226 12.8296 8.78679C12.9854 8.85132 13.1185 8.9606 13.2122 9.1008C13.3059 9.24101 13.3559 9.40585 13.3559 9.57447C13.3559 9.80059 13.2661 10.0174 13.1062 10.1773C12.9463 10.3372 12.7294 10.427 12.5033 10.427Z" fill="black"/>
</svg>
