<svg width="21" height="21" viewBox="0 0 21 21" fill="none" xmlns="http://www.w3.org/2000/svg">
<path d="M18.375 0C19.0723 0 19.6875 0.287109 20.2207 0.779297C20.7129 1.3125 21 1.92773 21 2.625V14.4375C21 15.1758 20.7129 15.791 20.2207 16.2832C19.6875 16.8164 19.0723 17.0625 18.375 17.0625H12.4688L7.3418 20.918C7.25977 21 7.13672 21 7.01367 21C6.89062 21 6.76758 20.959 6.68555 20.877C6.60352 20.7949 6.5625 20.6719 6.5625 20.5078V17.0625H2.625C1.88672 17.0625 1.27148 16.8164 0.779297 16.2832C0.246094 15.791 0 15.1758 0 14.4375V2.625C0 1.92773 0.246094 1.3125 0.779297 0.779297C1.27148 0.287109 1.88672 0 2.625 0H18.375ZM19.6875 14.4375V2.625C19.6875 2.29688 19.5234 1.96875 19.2773 1.72266C19.0312 1.47656 18.7031 1.3125 18.375 1.3125H2.625C2.25586 1.3125 1.92773 1.47656 1.68164 1.72266C1.43555 1.96875 1.3125 2.29688 1.3125 2.625V14.4375C1.3125 14.8066 1.43555 15.1348 1.68164 15.3809C1.92773 15.627 2.25586 15.75 2.625 15.75H7.875V18.8672L12.0176 15.75H18.375C18.7031 15.75 19.0312 15.627 19.2773 15.3809C19.5234 15.1348 19.6875 14.8066 19.6875 14.4375Z" fill="#606770"/>
</svg>
