<svg width="13" height="13" viewBox="0 0 13 13" fill="none" xmlns="http://www.w3.org/2000/svg">
<path d="M12.3836 3.74314C12.839 4.71116 13.0476 5.77606 12.9909 6.8435C12.9341 7.91093 12.6138 8.94796 12.0583 9.86273C11.5028 10.7775 10.7293 11.5418 9.80623 12.0878C8.88316 12.6339 7.83906 12.9449 6.76641 12.9933C5.69376 13.0417 4.62568 12.8261 3.65676 12.3654C2.68785 11.9047 1.84801 11.2133 1.21164 10.3523C0.575279 9.4913 0.162026 8.48738 0.00849207 7.42943C-0.0559602 6.98531 0.253445 6.57326 0.699566 6.5091C1.14569 6.44494 1.55959 6.75295 1.62404 7.19707C1.73919 7.99053 2.04913 8.74348 2.52641 9.38921C3.00368 10.0349 3.63356 10.5535 4.36025 10.899C5.08693 11.2445 5.888 11.4063 6.69248 11.37C7.49697 11.3337 8.28004 11.1004 8.97234 10.6909C9.66464 10.2813 10.2448 9.70813 10.6614 9.02205C11.078 8.33597 11.3183 7.5582 11.3608 6.75762C11.4034 5.95705 11.247 5.15838 10.9054 4.43236C10.6968 3.98896 10.4231 3.58102 10.0947 3.22127L9.49629 3.81695C8.98214 4.3288 8.10301 3.96629 8.10301 3.24243V1.06546e-07L11.3601 2.48277e-07C12.0872 2.79918e-07 12.4513 0.875177 11.9372 1.38702L11.2499 2.07124C11.7113 2.56469 12.0944 3.12835 12.3836 3.74314Z" fill="#1664F5"/>
<path d="M1.16564 4.875C1.6164 4.875 1.98181 4.51123 1.98181 4.0625C1.98181 3.61377 1.6164 3.25 1.16564 3.25C0.714891 3.25 0.349482 3.61377 0.349482 4.0625C0.349482 4.51123 0.714891 4.875 1.16564 4.875Z" fill="#1664F5"/>
<path d="M3.81817 1.82812C3.81817 2.27685 3.45276 2.64062 3.00201 2.64062C2.55126 2.64062 2.18585 2.27685 2.18585 1.82812C2.18585 1.37939 2.55126 1.01562 3.00201 1.01562C3.45276 1.01562 3.81817 1.37939 3.81817 1.82812Z" fill="#1664F5"/>
<path d="M5.65454 1.625C6.10529 1.625 6.4707 1.26123 6.4707 0.8125C6.4707 0.363769 6.10529 1.96146e-08 5.65454 0C5.20378 -1.96146e-08 4.83838 0.363769 4.83838 0.8125C4.83838 1.26123 5.20378 1.625 5.65454 1.625Z" fill="#1664F5"/>
</svg>
