<svg width="31" height="30" viewBox="0 0 31 30" fill="none" xmlns="http://www.w3.org/2000/svg">
    <path d="m12.219 13.348 1.3 2.59h-2.601l1.3-2.59zm15.469-6.786v18.75a.924.924 0 0 1-.446.797.937.937 0 0 1-.914.047L23 24.481l-3.328 1.675a.996.996 0 0 1-.844 0L15.5 24.481l-3.328 1.675a.972.972 0 0 1-.844 0L8 24.481l-3.328 1.675a.937.937 0 0 1-.914-.047.926.926 0 0 1-.445-.797V6.563a1.875 1.875 0 0 1 1.875-1.875h20.625a1.875 1.875 0 0 1 1.875 1.875zM16.813 18.328l-3.75-7.5a.949.949 0 0 0-1.688 0l-3.75 7.5a.943.943 0 0 0 1.688.844l.667-1.36h4.477l.668 1.36a.949.949 0 0 0 .844.515c.145-.003.289-.035.422-.093a.961.961 0 0 0 .422-1.266zM24.405 15a.938.938 0 0 0-.937-.938h-1.407v-1.406a.938.938 0 0 0-1.875 0v1.406h-1.406a.937.937 0 1 0 0 1.876h1.407v1.406a.938.938 0 0 0 1.875 0v-1.407h1.406a.938.938 0 0 0 .937-.937z" fill="#000"/>
</svg>
