<svg width="18" height="18" viewBox="0 0 18 18" fill="none" xmlns="http://www.w3.org/2000/svg">
<path d="M15.0176 5.78495L11.0848 1.85223C11.0792 1.8466 11.0731 1.84165 11.0673 1.8363C11.0597 1.82933 11.0523 1.82212 11.0443 1.81556C11.039 1.81123 11.0334 1.80746 11.028 1.8033C11.0188 1.79627 11.0097 1.78912 11 1.78263C10.9957 1.77972 10.991 1.77728 10.9867 1.7745C10.9755 1.76746 10.9643 1.76046 10.9527 1.75417C10.9495 1.75249 10.9462 1.75119 10.9431 1.74957C10.9299 1.74277 10.9165 1.73625 10.9028 1.73052C10.9007 1.72962 10.8984 1.72897 10.8962 1.72811C10.8814 1.72217 10.8664 1.71661 10.851 1.71194C10.8488 1.71126 10.8465 1.71084 10.8443 1.71019C10.829 1.70576 10.8136 1.70168 10.7978 1.69852C10.7928 1.69752 10.7876 1.69708 10.7826 1.69622C10.7695 1.69395 10.7566 1.69165 10.7433 1.69035C10.7246 1.68845 10.7058 1.6875 10.6871 1.6875H3.93652C3.63826 1.68784 3.35231 1.80648 3.1414 2.01738C2.9305 2.22829 2.81186 2.51424 2.81152 2.8125V15.1875C2.81186 15.4858 2.9305 15.7717 3.1414 15.9826C3.35231 16.1935 3.63826 16.3122 3.93652 16.3125H14.0621C14.3603 16.3122 14.6463 16.1935 14.8572 15.9826C15.0681 15.7717 15.1867 15.4858 15.1871 15.1875V6.19838C15.1871 6.19471 15.1876 6.19117 15.1876 6.1875C15.1877 6.11243 15.1727 6.03812 15.1434 5.96897C15.1142 5.89982 15.0714 5.83725 15.0176 5.78495V5.78495ZM10.6871 6.1875V3.04548L13.829 6.1875H10.6871Z" fill="black"/>
</svg>
