<svg width="21" height="21" viewBox="0 0 21 21" fill="none" xmlns="http://www.w3.org/2000/svg">
    <style>
        .image-square{fill:#A3A8AF;}
    </style>
<path class="image-square" d="M8.60156 8.46094C9.11933 8.46094 9.53906 8.0412 9.53906 7.52344C9.53906 7.00567 9.11933 6.58594 8.60156 6.58594C8.0838 6.58594 7.66406 7.00567 7.66406 7.52344C7.66406 8.0412 8.0838 8.46094 8.60156 8.46094Z" fill="#A3A8AF"/>
<path class="image-square" d="M17.0391 2.83594H4.53914C4.20774 2.83632 3.89001 2.96813 3.65568 3.20247C3.42134 3.43681 3.28952 3.75453 3.28914 4.08594V14.0839L3.28906 14.0863L3.28914 16.5859C3.28952 16.9173 3.42134 17.2351 3.65568 17.4694C3.89001 17.7037 4.20774 17.8356 4.53914 17.8359H17.0391C17.3705 17.8356 17.6883 17.7037 17.9226 17.4694C18.1569 17.2351 18.2888 16.9173 18.2891 16.5859V4.08594C18.2888 3.75453 18.1569 3.43681 17.9226 3.20247C17.6883 2.96813 17.3705 2.83632 17.0391 2.83594ZM14.798 9.08594C14.5634 8.85187 14.2455 8.72041 13.9141 8.72041C13.5827 8.72041 13.2648 8.85187 13.0302 9.08594L9.53914 12.5771L7.92301 10.9609C7.68837 10.7269 7.3705 10.5955 7.03911 10.5955C6.70771 10.5955 6.38984 10.7269 6.1552 10.9609L4.53914 12.5769V4.08594H17.0391L17.0396 11.3275L14.798 9.08594Z" fill="#A3A8AF"/>
</svg>
