<svg width="151" height="23" viewBox="0 0 151 23" fill="none" xmlns="http://www.w3.org/2000/svg">
    <g clip-path="url(#of6hs5ygua)">
        <path d="M6.274.71H.347v21.576h5.927V.711zM8.433.71v5.168h6.227V22.29h5.927V5.878h6.198V.711H8.433z" fill="#1664F5"/>
        <path d="M43.3 12.715a6.446 6.446 0 0 0 1.582-2.279 7.205 7.205 0 0 0 .563-2.825c0-.852-.162-1.687-.484-2.509a7.32 7.32 0 0 0-1.369-2.216 6.891 6.891 0 0 0-2.066-1.582C40.737.907 39.865.71 38.913.71h-9.237v21.58h2.734v-7.752h2.901l-1.544-2.429H32.41V3.144h6.353c.71 0 1.356.205 1.945.61a4.515 4.515 0 0 1 1.428 1.628c.363.68.546 1.423.546 2.233s-.158 1.532-.471 2.216a4.21 4.21 0 0 1-1.307 1.657c-.56.418-1.21.622-1.962.622h-2.358l3.92 6.178 2.541 4.002h3.102l-5.226-8.264a5.568 5.568 0 0 0 2.383-1.306l-.004-.005zM58.595 7.112l2.58 6.729h-5.13l-.806 2.124h6.745l2.42 6.324h2.919l-7.51-18.387-1.218 3.21zM56.203.71l-8.845 21.58h2.83L58.373.71h-2.17zM72.944.71H70.21v21.576h2.734V.711zM104.246.71h-2.734v21.576h2.734V.711zM145.207 19.038c-1.115.626-2.292.944-3.527.944a6.605 6.605 0 0 1-2.947-.668 7.747 7.747 0 0 1-2.4-1.837 8.444 8.444 0 0 1-1.595-2.705 9.418 9.418 0 0 1-.563-3.268c0-1.093.167-2.145.501-3.16a8.768 8.768 0 0 1 1.456-2.721 7.138 7.138 0 0 1 2.296-1.9c.893-.467 1.882-.696 2.976-.696 1.315 0 2.521.305 3.615.91 1.093.61 1.953 1.54 2.583 2.796l2.096-1.456c-.689-1.399-1.712-2.534-3.068-3.402-1.357-.873-3.081-1.307-5.167-1.307-1.441 0-2.772.288-3.995.864a9.756 9.756 0 0 0-3.189 2.388 11.366 11.366 0 0 0-2.112 3.481 11.403 11.403 0 0 0-.76 4.149c0 1.46.255 2.75.76 4.057a11.73 11.73 0 0 0 2.129 3.527 10.453 10.453 0 0 0 3.205 2.492 8.693 8.693 0 0 0 3.966.927 8.136 8.136 0 0 0 4.182-1.123v-2.555a6.821 6.821 0 0 1-.447.272l.005-.009z" fill="#0F3271"/>
        <path d="M143.384 11.533V13.6h4.649v8.695h2.313v-10.76h-6.962zM93.61.744v16.834L80.42.711H78.11v1.607l2.734 3.464v-.025L93.851 22.29h2.492V.744H93.61zM78.111 22.29h2.734V9.622l-2.734-3.469V22.29zM124.91.744v16.834L111.72.711h-2.308v1.607l2.734 3.464v-.025l13.006 16.533h2.492V.744h-2.734zM109.412 22.29h2.734V9.622l-2.734-3.469V22.29z" fill="#0F3271"/>
    </g>
    <defs>
        <clipPath id="of6hs5ygua">
            <path fill="#fff" transform="translate(.347 .56)" d="M0 0h150v21.88H0z"/>
        </clipPath>
    </defs>
</svg>
