<svg width="151" height="23" viewBox="0 0 151 23" fill="none" xmlns="http://www.w3.org/2000/svg">
    <g clip-path="url(#j7sno3q9ca)" fill="#787878" fill-opacity=".8">
        <path d="M6.274.924H.347v21.575h5.927V.924zM8.433.924V6.09h6.227v16.412h5.927V6.091h6.198V.924H8.433zM43.3 12.928a6.446 6.446 0 0 0 1.582-2.279 7.205 7.205 0 0 0 .563-2.826c0-.851-.162-1.686-.484-2.508a7.32 7.32 0 0 0-1.369-2.217 6.891 6.891 0 0 0-2.066-1.581c-.789-.397-1.661-.593-2.613-.593h-9.237v21.58h2.734v-7.752h2.901l-1.544-2.43H32.41V3.358h6.353c.71 0 1.356.205 1.945.61a4.515 4.515 0 0 1 1.428 1.627c.363.68.546 1.424.546 2.234s-.158 1.531-.471 2.216a4.21 4.21 0 0 1-1.307 1.657c-.56.417-1.21.622-1.962.622h-2.358l3.92 6.177 2.541 4.003h3.102L40.92 14.24a5.567 5.567 0 0 0 2.383-1.307l-.004-.004zM58.595 7.325l2.58 6.728h-5.13l-.806 2.125h6.745l2.42 6.324h2.919l-7.51-18.387-1.218 3.21zM56.203.924l-8.845 21.58h2.83L58.373.923h-2.17zM72.944.924H70.21v21.575h2.734V.924zM104.246.924h-2.734v21.575h2.734V.924zM145.207 19.251c-1.115.626-2.292.943-3.527.943a6.605 6.605 0 0 1-2.947-.667 7.747 7.747 0 0 1-2.4-1.837 8.444 8.444 0 0 1-1.595-2.705 9.418 9.418 0 0 1-.563-3.268c0-1.094.167-2.145.501-3.16a8.768 8.768 0 0 1 1.456-2.721 7.138 7.138 0 0 1 2.296-1.9c.893-.467 1.882-.696 2.976-.696 1.315 0 2.521.304 3.615.91 1.093.609 1.953 1.54 2.583 2.796l2.096-1.457c-.689-1.398-1.712-2.533-3.068-3.401-1.357-.873-3.081-1.307-5.167-1.307-1.441 0-2.772.288-3.995.864a9.756 9.756 0 0 0-3.189 2.388 11.366 11.366 0 0 0-2.112 3.48 11.402 11.402 0 0 0-.76 4.15c0 1.46.255 2.75.76 4.057a11.732 11.732 0 0 0 2.129 3.527 10.453 10.453 0 0 0 3.205 2.492 8.693 8.693 0 0 0 3.966.926 8.136 8.136 0 0 0 4.182-1.122v-2.555a6.865 6.865 0 0 1-.447.271l.005-.008z"/>
        <path d="M143.384 11.746v2.066h4.649v8.695h2.313v-10.76h-6.962zM93.61.957v16.834L80.42.924H78.11V2.53l2.734 3.464V5.97l13.006 16.533h2.492V.957H93.61zM78.111 22.504h2.734V9.836l-2.734-3.469v16.137zM124.91.957v16.834L111.72.924h-2.308V2.53l2.734 3.464V5.97l13.006 16.533h2.492V.957h-2.734zM109.412 22.504h2.734V9.836l-2.734-3.469v16.137z"/>
    </g>
    <defs>
        <clipPath id="j7sno3q9ca">
            <path fill="#fff" transform="translate(.347 .773)" d="M0 0h150v21.88H0z"/>
        </clipPath>
    </defs>
</svg>
