<svg width="17" height="17" viewBox="0 0 17 17" fill="none" xmlns="http://www.w3.org/2000/svg">
<path fill-rule="evenodd" clip-rule="evenodd" d="M9.91658 8.49984C9.91658 7.71743 9.28232 7.08317 8.49992 7.08317C7.71752 7.08317 7.08325 7.71743 7.08325 8.49984C7.08325 9.28224 7.71752 9.9165 8.49992 9.9165C9.28232 9.9165 9.91658 9.28224 9.91658 8.49984Z" fill="#7D86A9"/>
<path fill-rule="evenodd" clip-rule="evenodd" d="M9.91658 4.24984C9.91658 3.46743 9.28232 2.83317 8.49992 2.83317C7.71752 2.83317 7.08325 3.46743 7.08325 4.24984C7.08325 5.03224 7.71752 5.6665 8.49992 5.6665C9.28232 5.6665 9.91658 5.03224 9.91658 4.24984Z" fill="#7D86A9"/>
<path fill-rule="evenodd" clip-rule="evenodd" d="M9.91658 12.7498C9.91658 11.9674 9.28232 11.3332 8.49992 11.3332C7.71752 11.3332 7.08325 11.9674 7.08325 12.7498C7.08325 13.5322 7.71752 14.1665 8.49992 14.1665C9.28232 14.1665 9.91658 13.5322 9.91658 12.7498Z" fill="#7D86A9"/>
</svg>
