<svg width="28" height="27" viewBox="0 0 28 27" fill="none" xmlns="http://www.w3.org/2000/svg">
<path d="M22.8189 6.97113L18.6174 2.76957C18.4598 2.61198 18.246 2.52344 18.0231 2.52344H9.62C9.17443 2.52395 8.74725 2.70118 8.43218 3.01624C8.11711 3.33131 7.93988 3.75849 7.93937 4.20406V5.88469H6.25875C5.81318 5.8852 5.386 6.06243 5.07093 6.37749C4.75586 6.69256 4.57863 7.11974 4.57812 7.56531V22.6909C4.57863 23.1365 4.75586 23.5637 5.07093 23.8788C5.386 24.1938 5.81318 24.3711 6.25875 24.3716H18.0231C18.4687 24.3711 18.8959 24.1938 19.2109 23.8788C19.526 23.5637 19.7032 23.1365 19.7037 22.6909V21.0103H21.3844C21.8299 21.0098 22.2571 20.8326 22.5722 20.5175C22.8873 20.2024 23.0645 19.7753 23.065 19.3297V7.56531C23.065 7.34246 22.9765 7.12873 22.8189 6.97113V6.97113ZM14.6619 20.17H9.62C9.39713 20.17 9.1834 20.0815 9.02581 19.9239C8.86822 19.7663 8.77969 19.5526 8.77969 19.3297C8.77969 19.1068 8.86822 18.8931 9.02581 18.7355C9.1834 18.5779 9.39713 18.4894 9.62 18.4894H14.6619C14.8847 18.4894 15.0985 18.5779 15.2561 18.7355C15.4137 18.8931 15.5022 19.1068 15.5022 19.3297C15.5022 19.5526 15.4137 19.7663 15.2561 19.9239C15.0985 20.0815 14.8847 20.17 14.6619 20.17ZM14.6619 16.8088H9.62C9.39713 16.8088 9.1834 16.7202 9.02581 16.5626C8.86822 16.405 8.77969 16.1913 8.77969 15.9684C8.77969 15.7456 8.86822 15.5318 9.02581 15.3742C9.1834 15.2167 9.39713 15.1281 9.62 15.1281H14.6619C14.8847 15.1281 15.0985 15.2167 15.2561 15.3742C15.4137 15.5318 15.5022 15.7456 15.5022 15.9684C15.5022 16.1913 15.4137 16.405 15.2561 16.5626C15.0985 16.7202 14.8847 16.8088 14.6619 16.8088ZM21.3844 19.3297H19.7037V10.9266C19.7038 10.7037 19.6152 10.49 19.4577 10.3324L15.2561 6.13082C15.0985 5.97323 14.8848 5.88469 14.6619 5.88469H9.62V4.20406H17.6751L21.3844 7.91341V19.3297Z" fill="black"/>
</svg>
