<svg width="23" height="22" viewBox="0 0 23 22" fill="none" xmlns="http://www.w3.org/2000/svg">
<path d="M11.4697 2.06226C9.70206 2.06226 7.97409 2.58643 6.50432 3.5685C5.03456 4.55056 3.88902 5.94641 3.21256 7.57952C2.5361 9.21264 2.35911 11.0097 2.70396 12.7434C3.04882 14.4771 3.90003 16.0696 5.14996 17.3195C6.3999 18.5695 7.99241 19.4207 9.72611 19.7655C11.4598 20.1104 13.2568 19.9334 14.89 19.2569C16.5231 18.5805 17.9189 17.4349 18.901 15.9652C19.8831 14.4954 20.4072 12.7674 20.4072 10.9998C20.4045 8.63022 19.462 6.35853 17.7865 4.68301C16.111 3.0075 13.8393 2.06499 11.4697 2.06226V2.06226ZM14.9072 11.6873H12.1572V14.4373C12.1572 14.6196 12.0848 14.7945 11.9559 14.9234C11.8269 15.0523 11.6521 15.1248 11.4697 15.1248C11.2874 15.1248 11.1125 15.0523 10.9836 14.9234C10.8547 14.7945 10.7822 14.6196 10.7822 14.4373V11.6873H8.03223C7.84989 11.6873 7.67503 11.6148 7.54609 11.4859C7.41716 11.357 7.34473 11.1821 7.34473 10.9998C7.34473 10.8174 7.41716 10.6426 7.54609 10.5136C7.67503 10.3847 7.84989 10.3123 8.03223 10.3123H10.7822V7.56226C10.7822 7.37992 10.8547 7.20505 10.9836 7.07612C11.1125 6.94719 11.2874 6.87476 11.4697 6.87476C11.6521 6.87476 11.8269 6.94719 11.9559 7.07612C12.0848 7.20505 12.1572 7.37992 12.1572 7.56226V10.3123H14.9072C15.0896 10.3123 15.2644 10.3847 15.3934 10.5136C15.5223 10.6426 15.5947 10.8174 15.5947 10.9998C15.5947 11.1821 15.5223 11.357 15.3934 11.4859C15.2644 11.6148 15.0896 11.6873 14.9072 11.6873Z" fill="white"/>
</svg>
