<svg width="18" height="17" viewBox="0 0 18 17" fill="none" xmlns="http://www.w3.org/2000/svg">
<path d="M8.79688 1.59375C7.43095 1.59375 6.0957 1.99879 4.95997 2.75766C3.82424 3.51653 2.93905 4.59514 2.41634 5.85709C1.89362 7.11905 1.75685 8.50766 2.02333 9.84734C2.28981 11.187 2.94757 12.4176 3.91342 13.3835C4.87928 14.3493 6.10986 15.0071 7.44954 15.2736C8.78922 15.54 10.1778 15.4033 11.4398 14.8805C12.7017 14.3578 13.7803 13.4726 14.5392 12.3369C15.2981 11.2012 15.7031 9.86593 15.7031 8.5C15.701 6.669 14.9727 4.9136 13.678 3.61888C12.3833 2.32417 10.6279 1.59587 8.79688 1.59375V1.59375ZM11.1875 6.375C11.3451 6.375 11.4992 6.42174 11.6302 6.5093C11.7613 6.59686 11.8634 6.72132 11.9237 6.86693C11.984 7.01254 11.9998 7.17276 11.9691 7.32734C11.9383 7.48192 11.8624 7.62391 11.751 7.73535C11.6395 7.8468 11.4975 7.92269 11.343 7.95344C11.1884 7.98419 11.0282 7.96841 10.8826 7.90809C10.7369 7.84778 10.6125 7.74564 10.5249 7.6146C10.4374 7.48355 10.3906 7.32948 10.3906 7.17188C10.3906 6.96054 10.4746 6.75785 10.624 6.60841C10.7735 6.45897 10.9762 6.37501 11.1875 6.375V6.375ZM6.40625 6.375C6.56386 6.375 6.71793 6.42174 6.84897 6.5093C6.98002 6.59686 7.08216 6.72132 7.14247 6.86693C7.20278 7.01254 7.21857 7.17276 7.18782 7.32734C7.15707 7.48192 7.08117 7.62391 6.96973 7.73535C6.85829 7.8468 6.7163 7.92269 6.56172 7.95344C6.40714 7.98419 6.24691 7.96841 6.1013 7.90809C5.95569 7.84778 5.83124 7.74564 5.74368 7.6146C5.65611 7.48355 5.60938 7.32948 5.60938 7.17188C5.60939 6.96054 5.69335 6.75785 5.84279 6.60841C5.99223 6.45897 6.19491 6.37501 6.40625 6.375V6.375ZM12.0176 10.3599C11.6123 11.0603 10.9903 11.61 10.2454 11.9261C9.40982 12.2782 8.47453 12.3134 7.61491 12.025C6.75529 11.7367 6.03039 11.1446 5.57618 10.3599C5.54123 10.2995 5.51851 10.2329 5.50932 10.1637C5.50013 10.0946 5.50464 10.0243 5.52261 9.95692C5.54058 9.88952 5.57165 9.82632 5.61404 9.77093C5.65644 9.71554 5.70932 9.66905 5.76969 9.6341C5.83005 9.59915 5.89671 9.57643 5.96585 9.56724C6.03499 9.55805 6.10527 9.56256 6.17267 9.58053C6.24006 9.5985 6.30326 9.62957 6.35865 9.67196C6.41404 9.71436 6.46054 9.76725 6.49549 9.82761C6.7858 10.3283 7.23072 10.7214 7.76343 10.9477C8.09102 11.0843 8.44245 11.1547 8.7974 11.1547C9.15235 11.1547 9.50377 11.0843 9.83136 10.9477C10.1466 10.814 10.4331 10.6205 10.6749 10.3781C10.8391 10.2135 10.9813 10.0285 11.0983 9.82761C11.1332 9.76725 11.1797 9.71436 11.2351 9.67196C11.2905 9.62957 11.3537 9.5985 11.4211 9.58053C11.4885 9.56256 11.5588 9.55805 11.6279 9.56724C11.6971 9.57643 11.7637 9.59915 11.8241 9.6341C11.8844 9.66905 11.9373 9.71554 11.9797 9.77093C12.0221 9.82632 12.0532 9.88952 12.0711 9.95692C12.0891 10.0243 12.0936 10.0946 12.0844 10.1637C12.0753 10.2329 12.0525 10.2995 12.0176 10.3599Z" fill="#00C880"/>
</svg>
