<svg width="26" height="26" viewBox="0 0 26 26" fill="none" xmlns="http://www.w3.org/2000/svg">
<circle cx="13" cy="13" r="13" fill="#004BD0"/>
<path d="M20.043 8.74599L13.668 6.62099C13.5589 6.58467 13.4411 6.58467 13.332 6.62099L6.96721 8.74258L6.96656 8.74281L6.95701 8.74599C6.95513 8.7466 6.95349 8.74762 6.95162 8.74827C6.92862 8.7562 6.90619 8.76571 6.8845 8.77674C6.88202 8.778 6.87943 8.77908 6.87697 8.78037C6.85548 8.79185 6.83482 8.80479 6.81512 8.81911C6.81077 8.82222 6.80655 8.82543 6.80231 8.82867C6.78315 8.84318 6.76498 8.85895 6.74794 8.8759C6.74636 8.8775 6.74499 8.87925 6.74343 8.88086C6.72771 8.89723 6.71305 8.9146 6.69954 8.93285C6.69677 8.93655 6.69391 8.94015 6.69125 8.94392C6.67731 8.96363 6.66473 8.98426 6.65359 9.00568C6.65187 9.00899 6.6504 9.01237 6.64874 9.01571C6.63835 9.0367 6.62936 9.05835 6.62184 9.08053C6.62113 9.08262 6.62026 9.0846 6.61958 9.08671C6.61208 9.11029 6.60625 9.13438 6.60212 9.15879C6.60124 9.16388 6.60053 9.16895 6.5998 9.17406C6.59598 9.1992 6.59395 9.22457 6.59375 9.25V14.5625C6.59375 14.7034 6.64972 14.8385 6.74935 14.9382C6.84898 15.0378 6.9841 15.0938 7.125 15.0938C7.2659 15.0938 7.40102 15.0378 7.50065 14.9382C7.60028 14.8385 7.65625 14.7034 7.65625 14.5625V9.9871L9.88652 10.7305C9.29527 11.6852 9.10607 12.8352 9.36029 13.929C9.61452 15.0227 10.2915 15.9714 11.2432 16.5675C9.97593 17.0466 8.89458 17.9175 8.15634 19.0535C8.11815 19.112 8.09186 19.1774 8.07896 19.246C8.06606 19.3146 8.0668 19.3851 8.08116 19.4534C8.09551 19.5217 8.12319 19.5865 8.16261 19.6441C8.20203 19.7017 8.25242 19.751 8.3109 19.7891C8.36938 19.8273 8.43479 19.8535 8.50341 19.8663C8.57203 19.8792 8.64251 19.8783 8.71081 19.8639C8.77911 19.8495 8.8439 19.8217 8.90147 19.7823C8.95905 19.7428 9.00827 19.6923 9.04634 19.6338C9.52898 18.8924 10.1891 18.2831 10.9668 17.8614C11.7446 17.4396 12.6153 17.2188 13.5 17.2188C14.3847 17.2188 15.2554 17.4396 16.0331 17.8614C16.8109 18.2831 17.471 18.8924 17.9536 19.6338C17.9917 19.6923 18.041 19.7426 18.0985 19.782C18.1561 19.8214 18.2209 19.8491 18.2891 19.8635C18.3574 19.8779 18.4278 19.8787 18.4964 19.8658C18.565 19.853 18.6303 19.8268 18.6888 19.7887C18.7472 19.7506 18.7976 19.7013 18.837 19.6438C18.8764 19.5862 18.9041 19.5215 18.9184 19.4532C18.9328 19.3849 18.9336 19.3145 18.9208 19.2459C18.9079 19.1774 18.8817 19.112 18.8436 19.0535C18.1054 17.9176 17.0241 17.0467 15.7568 16.5675C16.7085 15.9714 17.3855 15.0228 17.6397 13.929C17.8939 12.8352 17.7047 11.6852 17.1135 10.7305L20.043 9.75401C20.1488 9.71875 20.2408 9.6511 20.306 9.56064C20.3712 9.47018 20.4062 9.3615 20.4062 9.25C20.4062 9.1385 20.3712 9.02982 20.306 8.93936C20.2408 8.8489 20.1488 8.78125 20.043 8.74599V8.74599ZM13.5 16.1562C12.9105 16.1564 12.3324 15.9929 11.8302 15.6841C11.328 15.3754 10.9213 14.9333 10.6553 14.4072C10.3893 13.8811 10.2745 13.2915 10.3236 12.704C10.3726 12.1165 10.5837 11.5541 10.9333 11.0794L13.332 11.879C13.4411 11.9153 13.5589 11.9153 13.668 11.879L16.0667 11.0794C16.4163 11.5541 16.6274 12.1165 16.6764 12.704C16.7255 13.2915 16.6107 13.8811 16.3447 14.4072C16.0787 14.9333 15.672 15.3754 15.1698 15.6841C14.6676 15.9929 14.0895 16.1564 13.5 16.1562Z" fill="white"/>
</svg>
