<svg width="22" height="22" viewBox="0 0 22 22" fill="none" xmlns="http://www.w3.org/2000/svg">
    <path d="M5.5 12.031a.687.687 0 0 1-.687.688H1.03a.687.687 0 0 1-.55-1.1A5.828 5.828 0 0 1 2.84 9.754a3.437 3.437 0 1 1 5.694-3.18.687.687 0 0 1-.325.72 5.53 5.53 0 0 0-2.394 2.904A5.47 5.47 0 0 0 5.5 12.03zm16.019-.413a5.827 5.827 0 0 0-2.357-1.863 3.436 3.436 0 0 0-2.194-5.971 3.437 3.437 0 0 0-3.501 2.79.687.687 0 0 0 .325.72 5.531 5.531 0 0 1 2.394 2.904c.209.589.315 1.209.314 1.833a.687.687 0 0 0 .688.688h3.781a.687.687 0 0 0 .55-1.101zm-8.013 3.687a4.125 4.125 0 1 0-5.012 0 6.159 6.159 0 0 0-3.059 2.956.687.687 0 0 0 .618.989h9.894a.686.686 0 0 0 .618-.989 6.159 6.159 0 0 0-3.059-2.956z" fill="#A3A8AF"/>
</svg>
